<svg id="Слой_1" data-name="Слой 1" xmlns="http://www.w3.org/2000/svg" viewBox="0 0 52.18 91.73">
  <defs>
    <style>
      .cls-1 {
        fill: #e1ebed;
      }
    </style>
  </defs>
  <title>MARS-v2-s0-central-rocket</title>
  <path class="cls-1" d="M335.75,247.6c-1.05-.44-2.06-1-3.42-1.64,1.34-6.2,2.68-12.33,4-18.46a3.8,3.8,0,0,0,2.52-3.56v-1.37a3.76,3.76,0,0,0-1.49-3l-.08-.18c-5.22-8.19-10.59-16.29-15.92-24.41H320c-5.33,8.12-10.7,16.22-15.92,24.41l-.08.18a3.76,3.76,0,0,0-1.49,3v1.37a3.8,3.8,0,0,0,2.52,3.56c1.3,6.13,2.64,12.26,4,18.46-1.36.66-2.37,1.2-3.42,1.64-8.87,3.78-12.45,10.55-10.52,20.07.83,4.08,1.68,8.15,2.71,12.19a72.77,72.77,0,0,0,2.6,6.86c5.58-7.94,1.45-20.78,14.61-22.7v6.48h11.32V264c13.16,1.92,9,14.76,14.61,22.7a72.77,72.77,0,0,0,2.6-6.86c1-4,1.88-8.11,2.71-12.19C348.2,258.15,344.62,251.38,335.75,247.6Z" transform="translate(-294.6 -194.99)"/>
</svg>
