<svg id="Слой_1" data-name="Слой 1" xmlns="http://www.w3.org/2000/svg" viewBox="0 0 435.91 316.25">
  <defs>
    <style>
      .cls-1 {
        fill: #fff;
      }
    </style>
  </defs>
  <title>MARS-v2-s0-central-logo</title>
  <path class="cls-1" d="M359.25,179.5c-.56,5.73-1,11-1.63,16.28-.75,5.9-1.6,11.81-2.79,17.63a4.78,4.78,0,0,1-3.36,2.88c-5.93.65-11.88,1-17.47-2.06-3.87-2.12-4.75-4.42-1.5-7.12,3.58-3,3.84-7.18,5.22-11,.77-2.15.62-4.62,1.33-6.8,2-6,.73-11.79-.69-18.41a102.54,102.54,0,0,1-43.95-9.35c-.67,2.17-1.64,3.86-1.6,5.53.09,5.13.53,10.26.92,15.38.42,5.47,1.21,10.92,1.34,16.38a27,27,0,0,0,2.82,11.95c.77,1.49.87,3.32,1.38,5.39H277.11c.76-1.69,1-3.09,1.79-3.85,2.93-2.76,2.31-5.94,1.49-9.22-1.15-4.63-2.34-9.26-3.44-13.91-.67-2.86-1.19-5.75-1.82-8.77-9.88,5.1-13.19,16-11.2,23.57a40.07,40.07,0,0,1,.88,8.36c.12,2.62-1.51,4.07-4,4.17a83.11,83.11,0,0,1-11.49-.06c-5.22-.5-7.44-4.21-5.58-9s4-9.75,4.3-15.18c.29-5,3.39-9,6.27-12.79,3.91-5.14,6.59-10.67,7.28-17.13.67-6.26,1.47-12.51,1.95-18.79.12-1.62-.74-3.33-1.16-5-5.17,1.21-7,.52-8.94-5-5.07.56-9.78,2.36-14.63,3.83a33.06,33.06,0,0,0-10.85,6c-1.69,1.28-4.08,1.65-7,2.74.36-2.31.54-3.5.77-4.92-2.71.27-4.74,3.48-8.12,1.6,1.38-3,5.22-5.1,4.25-9.47-2.85-.14-5.67-.1-8.45-.46-6.43-.83-11.89-3.39-14.46-9.81-1.9-4.77-.67-9.52,1.1-14.07,2.85-7.33,12.58-13.94,18.36-13.31,3.9.42,6.45,2.38,8.69,5.13,1,1.24.76,2.45-.65,3.36-2.47,1.62-5,2.72-7.83.87s-5.09-.74-7.12,1.22c-2.68,2.61-3.16,5.48-1.69,8.59,2,4.2,7.49,4.71,11.72,1,3.77-3.27,5.17-8,7.23-12.27a72.49,72.49,0,0,1,3.91-8c4.05-6.34,9.83-9.49,17.54-9.45a119.39,119.39,0,0,0,16.35-1.15,70,70,0,0,0,11.05-2.74c8.32-2.52,15.56-1.41,21.84,5.15a18,18,0,0,0,14,5.53,158.4,158.4,0,0,0,18.37-1.38,33.62,33.62,0,0,1,23.74,4.88c8.72,5.41,16.47,11.79,21.59,20.85,4,7,5.49,14.82,6.89,22.66,1.19,6.67,2.59,13.34,6.5,19.07a18.64,18.64,0,0,0,5,5.42c3.67,2.29,4.7,5.22,3.89,9.25a21.92,21.92,0,0,0-.05,4.29c-4.7-.16-7-2.12-8-6.61a10.15,10.15,0,0,0-1.89-3.89c-2.38-2.88-5-5.6-7.54-8.45.26-.2-.15,0-.13.11,1.94,7.64,3.64,15.37,6,22.88,1,3.22,3.14,6.21,5.24,8.93,4.57,5.92,5.78,12.94,6.91,20,.69,4.23-.49,5-4.84,5.63-5.59.86-10.8-1.06-16.15-1.78-2.9-.39-4.94-3.59-3.68-5.94,2.37-4.4,1.08-8.35-.44-12.41C368.47,190.1,366,183.75,359.25,179.5Z" transform="translate(-94.02 -81.09)"/>
  <g>
    <path class="cls-1" d="M103,303.28a9,9,0,0,1-6.52-2.42,8.32,8.32,0,0,1-2.5-6.27V255.4a8.35,8.35,0,0,1,2.5-6.28A9,9,0,0,1,103,246.7h23c.71,0,1.07.39,1.07,1.15v.66c0,.71-.41,1.06-1.23,1.06H103.62a6,6,0,0,0-4.51,1.77A6.33,6.33,0,0,0,97.38,256v15.09a.51.51,0,0,0,.58.57l24.52.08a1,1,0,0,1,1.14,1.15v.41a1,1,0,0,1-1.14,1.15L98,274.5a.51.51,0,0,0-.58.58V294a6.33,6.33,0,0,0,1.73,4.63,6,6,0,0,0,4.51,1.76h22.22c.82,0,1.23.36,1.23,1.07v.57c.05.82-.3,1.23-1.07,1.23Z" transform="translate(-94.02 -81.09)"/>
    <path class="cls-1" d="M150.68,303.28a9,9,0,0,1-6.72-2.5,8.78,8.78,0,0,1-2.46-6.44V247.93a1.09,1.09,0,0,1,1.23-1.23h1c.77,0,1.15.41,1.15,1.23V294a6,6,0,0,0,6.4,6.39h20.66c.82,0,1.23.36,1.23,1.07v.65a1,1,0,0,1-1.15,1.15Z" transform="translate(-94.02 -81.09)"/>
    <path class="cls-1" d="M193.9,303.28a8.94,8.94,0,0,1-6.52-2.42,8.32,8.32,0,0,1-2.5-6.27V255.4a8.35,8.35,0,0,1,2.5-6.28,9,9,0,0,1,6.52-2.42h23c.71,0,1.06.39,1.06,1.15v.66c0,.71-.41,1.06-1.23,1.06H194.47a6,6,0,0,0-4.51,1.77,6.33,6.33,0,0,0-1.72,4.63v15.09a.5.5,0,0,0,.57.57l24.52.08a1,1,0,0,1,1.15,1.15v.41a1,1,0,0,1-1.15,1.15l-24.52.08a.51.51,0,0,0-.57.58V294a6.33,6.33,0,0,0,1.72,4.63,6,6,0,0,0,4.51,1.76h22.22c.82,0,1.23.36,1.23,1.07v.57c.06.82-.3,1.23-1.06,1.23Z" transform="translate(-94.02 -81.09)"/>
    <path class="cls-1" d="M233.83,303.28a1.09,1.09,0,0,1-1.23-1.23v-53.3c0-1.36.55-2.1,1.64-2.21q6-.49,16.81-.49,9.51,0,13.24,3.56T268,262.94q0,9.84-3.69,13.37t-13,3.52q-9,0-14.76-.33a.51.51,0,0,0-.58.58v22a1.09,1.09,0,0,1-1.23,1.23Zm2.71-26.4h14.51q7.62-.17,10.58-3t2.95-10.95q0-8.12-2.95-11T251.05,249q-7.38,0-14,.16a1,1,0,0,0-1.07,1.07v26.08A.51.51,0,0,0,236.54,276.88Z" transform="translate(-94.02 -81.09)"/>
    <path class="cls-1" d="M283.69,303.28a1.08,1.08,0,0,1-1.23-1.23V247.93a1.08,1.08,0,0,1,1.23-1.23h.9a1.09,1.09,0,0,1,1.23,1.23V271c0,.32.19.49.57.49h30c.38,0,.58-.17.58-.49V247.93c0-.82.38-1.23,1.15-1.23h1a1.09,1.09,0,0,1,1.23,1.23v54.12a1.09,1.09,0,0,1-1.23,1.23h-1c-.77,0-1.15-.41-1.15-1.23V275a.51.51,0,0,0-.58-.57h-30a.5.5,0,0,0-.57.57v27.06a1.09,1.09,0,0,1-1.23,1.23Z" transform="translate(-94.02 -81.09)"/>
    <path class="cls-1" d="M333.13,303.28a.95.95,0,0,1-1-1.31l19.1-53.63a2.24,2.24,0,0,1,2.3-1.64h3.36a2.17,2.17,0,0,1,2.3,1.64L378.31,302a.87.87,0,0,1,0,.94,1,1,0,0,1-.86.37h-1.07a1.33,1.33,0,0,1-1.39-1l-6.56-18.45c-.11-.33-.3-.49-.57-.49h-25.1c-.27,0-.46.16-.57.49l-6.56,18.45a1.33,1.33,0,0,1-1.39,1Zm10.74-22.87h22.72c.43,0,.6-.22.49-.66l-9-25.67-1.48-4.1c-.11-.32-.3-.49-.57-.49h-1.48c-.27,0-.46.17-.57.49l-1.48,4.1-9,25.67C343.35,280.19,343.49,280.41,343.87,280.41Z" transform="translate(-94.02 -81.09)"/>
    <path class="cls-1" d="M391.43,303.28a1.09,1.09,0,0,1-1.23-1.23v-53.3a1.81,1.81,0,0,1,2.05-2.05h3.36a2.48,2.48,0,0,1,2.38,1.48l23.78,44.94,3.36,6.39c.17.28.58.41,1.23.41s1-.16,1-.49v-51.5a1.09,1.09,0,0,1,1.23-1.23h1c.77,0,1.15.41,1.15,1.23v53.3c0,1.37-.66,2-2,2h-3.61a2.66,2.66,0,0,1-2.46-1.47L398.48,256c-.27-.6-.75-1.52-1.43-2.75s-1.16-2.14-1.44-2.74c-.11-.28-.46-.41-1.06-.41s-1,.16-1,.49v51.49a1.09,1.09,0,0,1-1.23,1.23Z" transform="translate(-94.02 -81.09)"/>
    <path class="cls-1" d="M463.51,303.28a1.09,1.09,0,0,1-1.23-1.23V250.23a.51.51,0,0,0-.58-.57H444.07c-.82,0-1.23-.39-1.23-1.15v-.58a1.09,1.09,0,0,1,1.23-1.23h39.86a1.09,1.09,0,0,1,1.23,1.23v.58c0,.76-.41,1.15-1.23,1.15H466.21a.5.5,0,0,0-.57.57v51.82c0,.82-.38,1.23-1.15,1.23Z" transform="translate(-94.02 -81.09)"/>
    <path class="cls-1" d="M512.21,304.19a130.18,130.18,0,0,1-15.74-.91c-.82-.11-1.2-.49-1.15-1.15v-.4c0-.77.41-1.12,1.23-1.07q6.88.57,15.83.49a25.88,25.88,0,0,0,8.28-1.19,8.09,8.09,0,0,0,4.43-3.52,13.07,13.07,0,0,0,1.39-6.52c0-3.83-.69-6.55-2.09-8.16s-3.84-2.88-7.34-3.81l-11-3.37a20.81,20.81,0,0,1-6.76-2.95,11,11,0,0,1-3.73-4.67,18.43,18.43,0,0,1-1.23-7.22q0-8.12,4.06-11.07t13.32-2.87a119.77,119.77,0,0,1,14.52,1c.71.11,1,.49,1,1.14v.41q0,1.07-1.23,1-7-.5-14.19-.5a39.34,39.34,0,0,0-6.39.42,11.28,11.28,0,0,0-4.31,1.59,6.29,6.29,0,0,0-2.58,3.37,17.52,17.52,0,0,0-.74,5.53c0,3.61.69,6.25,2.05,7.91s3.72,2.94,7.05,3.82l10.91,3.36q6.72,1.8,9.43,5.08t2.71,10q0,8-4.27,11.15T512.21,304.19Z" transform="translate(-94.02 -81.09)"/>
    <path class="cls-1" d="M165.78,390.34q-5.07,7-17.73,7t-17.78-7q-5.1-7-5.1-24.42t5.1-24.42q5.1-7,17.78-7t17.73,7q5.06,7,5.06,24.42T165.78,390.34Zm-32.6-2.46q4.22,6.21,14.87,6.2t14.83-6.2q4.17-6.21,4.18-22T162.88,344q-4.19-6.21-14.83-6.21-7.22,0-11.31,2.73t-5.94,8.76q-1.85,6-1.85,16.67Q129,381.69,133.18,387.88Z" transform="translate(-94.02 -81.09)"/>
    <path class="cls-1" d="M189.32,396.28A1.17,1.17,0,0,1,188,395v-57.2a2,2,0,0,1,2.2-2.2h3.61a2.66,2.66,0,0,1,2.55,1.59l25.52,48.22,3.61,6.87c.17.29.61.43,1.32.43s1.05-.17,1.05-.52V336.88a1.17,1.17,0,0,1,1.32-1.32h1.06q1.23,0,1.23,1.32v57.2c0,1.47-.7,2.2-2.11,2.2h-3.87a2.84,2.84,0,0,1-2.64-1.58l-26-49.19c-.3-.65-.81-1.63-1.54-2.95s-1.25-2.3-1.54-2.95c-.12-.29-.5-.44-1.15-.44s-1,.18-1,.53V395a1.17,1.17,0,0,1-1.32,1.32Z" transform="translate(-94.02 -81.09)"/>
    <path class="cls-1" d="M273,396.28a1.17,1.17,0,0,1-1.32-1.32l2.47-57a2.24,2.24,0,0,1,2.46-2.38h3.7A2.46,2.46,0,0,1,283,337.5l15.22,41.89c1.59,4.52,2.49,7.07,2.73,7.65.12.41.53.62,1.23.62s1-.21,1.15-.62l2.81-7.83,15.23-41.71a2.53,2.53,0,0,1,2.64-1.94h3.6a2.25,2.25,0,0,1,2.47,2.38l2.46,57a1.08,1.08,0,0,1-1.23,1.32H330.2q-1.23,0-1.32-1.32l-2.46-55.7a.55.55,0,0,0-.18-.48,1.7,1.7,0,0,0-.88-.14c-.64,0-1,.18-1.14.53l-18,49.46a2.45,2.45,0,0,1-2.64,1.93h-2.9a2.53,2.53,0,0,1-2.64-1.93l-18-49.46c-.12-.35-.47-.53-1.06-.53a1.37,1.37,0,0,0-.88.18.85.85,0,0,0-.18.62L275.38,395q-.09,1.32-1.32,1.32Z" transform="translate(-94.02 -81.09)"/>
    <path class="cls-1" d="M345,396.28a1.12,1.12,0,0,1-.93-.39,1.09,1.09,0,0,1-.13-1l20.5-57.56a2.41,2.41,0,0,1,2.47-1.76h3.61a2.32,2.32,0,0,1,2.46,1.76l20.5,57.56a1,1,0,0,1,0,1,1.1,1.1,0,0,1-.92.39h-1.15a1.43,1.43,0,0,1-1.49-1l-7-19.8c-.12-.35-.33-.53-.62-.53H355.28a.64.64,0,0,0-.61.53l-7,19.8a1.45,1.45,0,0,1-1.5,1Zm11.52-24.55h24.38c.47,0,.65-.23.53-.7l-9.68-27.55-1.59-4.4a.63.63,0,0,0-.61-.52H368c-.29,0-.49.17-.61.52l-1.59,4.4L356.07,371C356,371.5,356.1,371.73,356.51,371.73Z" transform="translate(-94.02 -81.09)"/>
    <path class="cls-1" d="M407.55,396.28a1.17,1.17,0,0,1-1.32-1.32v-57.2a2.21,2.21,0,0,1,2.29-2.46q6.35-.44,17.16-.44a42.1,42.1,0,0,1,8.45.7,13.49,13.49,0,0,1,5.72,2.6,10.35,10.35,0,0,1,3.39,5.24,30.61,30.61,0,0,1,1,8.62,23.57,23.57,0,0,1-1.36,8.71,10.37,10.37,0,0,1-3.57,4.84,16.66,16.66,0,0,1-5.81,2.29c-.64.18-.67.44-.08.79,3.05,1.53,5.24,4.28,6.6,8.27l6,18c.29.93-.06,1.4-1.06,1.4h-1.32a1.43,1.43,0,0,1-1.49-1l-5.81-18a15.22,15.22,0,0,0-1.67-3.57,10.15,10.15,0,0,0-2.16-2.37,7.4,7.4,0,0,0-2.55-1.32,11,11,0,0,0-3.12-.4q-9.78,0-16.37-.35a.55.55,0,0,0-.62.61V395a1.17,1.17,0,0,1-1.32,1.32Zm2.91-30h15.75q8.1-.09,11.22-3t3.12-11.13a26.79,26.79,0,0,0-.74-6.91,8.78,8.78,0,0,0-2.56-4.31,9.76,9.76,0,0,0-4.44-2.25A31.25,31.25,0,0,0,426,338q-7.84,0-15,.17a1,1,0,0,0-1.15,1.15v26.31A.55.55,0,0,0,410.46,366.28Z" transform="translate(-94.02 -81.09)"/>
    <path class="cls-1" d="M478.13,397.25a138.51,138.51,0,0,1-16.9-1c-.88-.11-1.29-.53-1.23-1.23v-.44q0-1.23,1.32-1.14,7.4.61,17,.53a28.09,28.09,0,0,0,8.89-1.28,8.62,8.62,0,0,0,4.75-3.78,14,14,0,0,0,1.5-7q0-6.17-2.24-8.76t-7.88-4.09l-11.79-3.61a22.37,22.37,0,0,1-7.26-3.16,11.83,11.83,0,0,1-4-5,19.71,19.71,0,0,1-1.32-7.74q0-8.71,4.36-11.89t14.3-3.08a130.67,130.67,0,0,1,15.58,1.06q1.14.18,1.05,1.23v.44c0,.77-.44,1.12-1.32,1.06q-7.49-.53-15.22-.53a43.73,43.73,0,0,0-6.87.44A12.22,12.22,0,0,0,466.2,340a6.71,6.71,0,0,0-2.77,3.61,18.68,18.68,0,0,0-.79,5.94q0,5.81,2.2,8.49t7.57,4.09l11.7,3.61q7.22,1.94,10.12,5.45t2.91,10.74q0,8.63-4.58,12T478.13,397.25Z" transform="translate(-94.02 -81.09)"/>
  </g>
</svg>
