<?xml version="1.0" encoding="utf-8"?>
<!-- Generator: Adobe Illustrator 23.0.5, SVG Export Plug-In . SVG Version: 6.00 Build 0)  -->
<svg version="1.1" id="Слой_1" xmlns="http://www.w3.org/2000/svg" xmlns:xlink="http://www.w3.org/1999/xlink" x="0px" y="0px"
	 viewBox="0 0 91 111" style="enable-background:new 0 0 91 111;" xml:space="preserve">
<style type="text/css">
	.st0{fill:#3C0803;}
	.st1{fill:#DEE8EC;}
</style>
<title>barell__222</title>
<rect x="17" y="18" class="st0" width="58" height="78"/>
<path class="st1" d="M91,5.7V1H0v4.7h4.5v48H0v4.7h4.5v48H0v4.6h91v-4.7h-4.5v-48H91v-4.7h-4.5V5.7H91z M13.6,96
	c0.2,1.3-0.7,2.5-1.9,2.7C10.4,98.9,9.2,98,9,96.7c0-0.2,0-0.5,0-0.7V16.5c-0.1-1.3,0.9-2.4,2.2-2.5c1.3-0.1,2.4,0.9,2.5,2.2
	c0,0.1,0,0.2,0,0.3L13.6,96z M46.3,88.9h-0.8c-3.9,0-7.8-0.7-11.5-2.1c-14.5-5.6-20.1-21.5-12-33.7l23.2-30.6l21.3,29
	C78.8,66.8,67.2,88.5,46.3,88.9L46.3,88.9z"/>
<path class="st0" d="M41.9,0.8c0.6-0.3,1.2-0.6,1.9-0.7c10.5,0,21-0.1,31.5,0C76.6,0,77.8,1,77.9,2.3c0,0.2,0,0.5,0,0.7
	c-0.2,2.3-0.7,4.4-1,6.7c-0.1,1.2-0.3,2.4-0.6,3.6c-0.2,0.7-0.9,1.7-1.3,1.7c-0.8-0.1-1.5-0.6-2-1.2c-0.4-0.4-0.3-1.2-0.5-1.9
	C72,10,72.2,8.2,69.5,7.2c-0.4-0.2-0.8-1-1.2-1.5c-0.9-1.2-3.1-1.7-3.8-1.8c-7-0.9-12-1.2-19-2c-1.2-0.1-2.3-0.3-3.5-0.5
	C41.9,1.2,41.9,1,41.9,0.8z"/>
<path d="M17.4,20.2V20c0-0.2,0.1-0.5,0.3-0.6c0.4-0.3,1-0.3,1.3,0c0.2,0.2,0.3,0.4,0.3,0.6v0.2c0,0.2-0.1,0.5-0.2,0.6
	c-0.4,0.4-1,0.4-1.4,0C17.5,20.6,17.4,20.4,17.4,20.2z M23.4,17.3V23h-1.2v-5.7H23.4z M25.7,19.7v0.9h-2.6v-0.9H25.7z M26,17.3v0.9
	h-2.9v-0.9H26z M29.8,17.3H31v3.8c0,0.4-0.1,0.8-0.3,1.1c-0.2,0.3-0.5,0.5-0.8,0.7c-0.4,0.2-0.7,0.2-1.1,0.2c-0.4,0-0.8-0.1-1.1-0.2
	c-0.3-0.1-0.6-0.4-0.8-0.7c-0.2-0.3-0.3-0.7-0.3-1.1v-3.8h1.2v3.8c0,0.2,0,0.4,0.1,0.6c0.1,0.2,0.2,0.3,0.3,0.3
	c0.2,0.1,0.4,0.1,0.5,0.1c0.2,0,0.4,0,0.6-0.1c0.2-0.1,0.3-0.2,0.3-0.3c0.1-0.2,0.1-0.4,0.1-0.6L29.8,17.3z M35.6,22.1V23h-2.9v-0.9
	H35.6z M33.1,17.3V23H32v-5.7H33.1z M39.9,22.1V23h-2.9v-0.9H39.9z M37.5,17.3V23h-1.2v-5.7H37.5z"/>
</svg>
