<svg width="211" height="230" viewBox="0 0 211 230" fill="none" xmlns="http://www.w3.org/2000/svg">
<rect x="77" y="57" width="58" height="78" fill="#3C0803"/>
<rect x="67" y="122" width="9" height="17" fill="#3C0803"/>
<g filter="url(#filter0_d_914_4)">
<path d="M151 44.6992V40H60V44.6992H64.4762V92.6504H60V97.3496H64.4762V145.301H60V150H151V145.301H146.524V97.3496H151V92.6504H146.524V44.6992H151ZM73.619 135.039C73.619 136.334 72.5714 137.389 71.2857 137.389C70 137.389 68.9524 136.334 68.9524 135.039V55.5362C68.9524 54.2415 70 53.1866 71.2857 53.1866C72.5714 53.1866 73.619 54.2415 73.619 55.5362V135.039ZM106.286 127.942C106.048 127.942 105.762 127.942 105.524 127.942C101.429 127.942 97.4762 127.175 93.9524 125.833C79.4286 120.27 73.8571 104.303 81.9524 92.1229L105.19 61.4821L126.476 90.4926C138.81 105.789 127.238 127.463 106.286 127.942Z" fill="#DEE8EC"/>
</g>
<path d="M101.895 39.7839C102.515 39.5451 103.136 39.0675 103.757 39.0675C114.264 39.0198 124.77 38.972 135.277 39.0198C137.139 39.0198 137.951 40.3092 137.808 41.933C137.617 44.1776 137.139 46.3744 136.805 48.619C136.614 49.8129 136.566 51.0546 136.232 52.2008C136.041 52.8694 135.325 53.8723 134.895 53.8723C134.178 53.8723 133.367 53.2037 132.889 52.6306C132.507 52.2008 132.555 51.3889 132.411 50.768C131.982 48.9055 132.173 47.1385 129.498 46.1356C129.068 45.9446 128.686 45.1805 128.304 44.6551C127.445 43.509 125.2 42.9359 124.531 42.8404C117.559 41.9807 112.497 41.6464 105.524 40.8346C104.33 40.6913 103.184 40.5003 101.99 40.357C101.942 40.166 101.942 39.9749 101.895 39.7839Z" fill="#3C0803"/>
<path d="M77.4375 59.1562V59.0078C77.4375 58.7474 77.5208 58.5352 77.6875 58.3711C77.8542 58.2044 78.0781 58.1211 78.3594 58.1211C78.651 58.1211 78.8789 58.2044 79.043 58.3711C79.2096 58.5352 79.293 58.7474 79.293 59.0078V59.1562C79.293 59.4141 79.2109 59.625 79.0469 59.7891C78.8828 59.9531 78.6562 60.0352 78.3672 60.0352C78.0833 60.0352 77.8568 59.9531 77.6875 59.7891C77.5208 59.625 77.4375 59.4141 77.4375 59.1562ZM83.4531 56.3125V62H82.2812V56.3125H83.4531ZM85.7188 58.7422V59.6562H83.1328V58.7422H85.7188ZM85.9922 56.3125V57.2305H83.1328V56.3125H85.9922ZM89.8125 56.3125H90.9805V60.0703C90.9805 60.5078 90.8867 60.8763 90.6992 61.1758C90.5143 61.4753 90.2578 61.7005 89.9297 61.8516C89.6042 62.0026 89.2292 62.0781 88.8047 62.0781C88.3802 62.0781 88.0026 62.0026 87.6719 61.8516C87.3438 61.7005 87.0859 61.4753 86.8984 61.1758C86.7135 60.8763 86.6211 60.5078 86.6211 60.0703V56.3125H87.793V60.0703C87.793 60.3255 87.8333 60.5339 87.9141 60.6953C87.9948 60.8568 88.1107 60.9753 88.2617 61.0508C88.4154 61.1263 88.5964 61.1641 88.8047 61.1641C89.0182 61.1641 89.1992 61.1263 89.3477 61.0508C89.4987 60.9753 89.6133 60.8568 89.6914 60.6953C89.7721 60.5339 89.8125 60.3255 89.8125 60.0703V56.3125ZM95.6016 61.0859V62H92.7383V61.0859H95.6016ZM93.1172 56.3125V62H91.9453V56.3125H93.1172ZM99.9297 61.0859V62H97.0664V61.0859H99.9297ZM97.4453 56.3125V62H96.2734V56.3125H97.4453Z" fill="black"/>
<defs>
<filter id="filter0_d_914_4" x="0" y="0" width="211" height="230" filterUnits="userSpaceOnUse" color-interpolation-filters="sRGB">
<feFlood flood-opacity="0" result="BackgroundImageFix"/>
<feColorMatrix in="SourceAlpha" type="matrix" values="0 0 0 0 0 0 0 0 0 0 0 0 0 0 0 0 0 0 127 0" result="hardAlpha"/>
<feOffset dy="20"/>
<feGaussianBlur stdDeviation="30"/>
<feColorMatrix type="matrix" values="0 0 0 0 0 0 0 0 0 0 0 0 0 0 0 0 0 0 0.5 0"/>
<feBlend mode="normal" in2="BackgroundImageFix" result="effect1_dropShadow_914_4"/>
<feBlend mode="normal" in="SourceGraphic" in2="effect1_dropShadow_914_4" result="shape"/>
</filter>
</defs>
</svg>
