<svg id="Слой_1" data-name="Слой 1" xmlns="http://www.w3.org/2000/svg" viewBox="0 0 91 111">
  <defs>
    <style>
      .cls-1 {
        fill: #3c0803;
      }

      .cls-2 {
        fill: #dee8ec;
      }
    </style>
  </defs>
  <title>barell__222</title>
  <rect class="cls-1" x="17" y="18" width="58" height="78"/>
  <rect class="cls-1" x="7" y="83" width="9" height="17"/>
  <path class="cls-2" d="M151,44.7V40H60v4.7h4.48v48H60v4.7h4.48v48H60V150h91v-4.7h-4.48v-48H151v-4.7h-4.48V44.7ZM73.62,135A2.34,2.34,0,1,1,69,135V55.54a2.34,2.34,0,1,1,4.67,0Zm32.67-7.1h-.77A32.53,32.53,0,0,1,94,125.83c-14.52-5.56-20.09-21.53-12-33.71l23.24-30.64,21.29,29C138.81,105.79,127.24,127.46,106.29,127.94Z" transform="translate(-60 -39)"/>
  <path class="cls-1" d="M101.89,39.78a6.24,6.24,0,0,1,1.87-.71c10.5,0,21-.1,31.52,0a2.41,2.41,0,0,1,2.53,2.91c-.19,2.25-.67,4.44-1,6.69a28.39,28.39,0,0,1-.57,3.58c-.19.67-.91,1.67-1.33,1.67a3.15,3.15,0,0,1-2-1.24c-.38-.43-.34-1.24-.48-1.86-.43-1.86-.24-3.63-2.91-4.63-.43-.2-.81-1-1.2-1.48-.86-1.15-3.1-1.72-3.77-1.82-7-.86-12-1.19-19-2-1.19-.14-2.34-.33-3.53-.47C101.94,40.17,101.94,40,101.89,39.78Z" transform="translate(-60 -39)"/>
  <path d="M77.44,59.16V59a.86.86,0,0,1,.25-.64,1,1,0,0,1,1.35,0,.86.86,0,0,1,.25.64v.15a.87.87,0,0,1-.24.63,1,1,0,0,1-1.36,0A.84.84,0,0,1,77.44,59.16Zm6-2.85V62H82.28V56.31Zm2.27,2.43v.92H83.13v-.92ZM86,56.31v.92H83.13v-.92Zm3.82,0H91v3.76a2,2,0,0,1-.28,1.11,1.73,1.73,0,0,1-.77.67,2.68,2.68,0,0,1-1.13.23,2.71,2.71,0,0,1-1.13-.23,1.73,1.73,0,0,1-.77-.67,2,2,0,0,1-.28-1.11V56.31h1.17v3.76a1.44,1.44,0,0,0,.12.63.74.74,0,0,0,.35.35,1.19,1.19,0,0,0,.54.11,1.15,1.15,0,0,0,.55-.11.72.72,0,0,0,.34-.35,1.44,1.44,0,0,0,.12-.63Zm5.79,4.78V62H92.74v-.91Zm-2.48-4.78V62H92V56.31Zm6.81,4.78V62H97.07v-.91Zm-2.48-4.78V62H96.27V56.31Z" transform="translate(-60 -39)"/>
</svg>
