<svg width="111" height="114" viewBox="0 0 111 114" fill="none" xmlns="http://www.w3.org/2000/svg">
<path d="M55.6669 98.4073C50.1812 98.4341 44.9954 97.4853 40.2628 95.71C20.9513 88.6105 13.4592 67.8893 24.1246 52.0251L54.7873 12.1576L83.2382 49.6373C99.7161 69.3403 84.4636 97.5918 56.657 98.3275C56.3526 98.4039 55.9716 98.4058 55.6669 98.4073Z" fill="#E1ECEF"/>
<path d="M7.48831 5.89863V4.39863H5.98831H1.5V1.5H107.5V4.39863H103.012H101.512V5.89863V54.0507V55.5507H103.012H107.5V58.4493H103.012H101.512V59.9493V108.101V109.601H103.012H107.5V112.5H1.5V109.601H5.98831H7.48831V108.101V59.9493V58.4493H5.98831H1.5V55.5507H5.98831H7.48831V54.0507V5.89863ZM55.5511 99.8506H55.5672L55.5833 99.8502C70.0854 99.5388 81.4653 92.3329 87.0572 82.5662C92.6631 72.7751 92.385 60.4923 83.7227 50.3911L55.2675 14.0031L54.1053 12.5169L52.9193 13.9842L21.8311 52.4457L21.8012 52.4827L21.7737 52.5215C10.2659 68.7666 18.3573 89.8599 38.5442 97.1138L38.5465 97.1147C43.4218 98.8576 48.8801 99.8506 54.5319 99.8506H54.5337H54.5356H54.5375H54.5393H54.5412H54.5431H54.545H54.5468H54.5487H54.5506H54.5525H54.5544H54.5562H54.5581H54.56H54.5619H54.5638H54.5657H54.5676H54.5695H54.5714H54.5733H54.5752H54.577H54.579H54.5809H54.5828H54.5847H54.5866H54.5885H54.5904H54.5923H54.5942H54.5961H54.598H54.5999H54.6019H54.6038H54.6057H54.6076H54.6095H54.6115H54.6134H54.6153H54.6172H54.6192H54.6211H54.623H54.6249H54.6269H54.6288H54.6307H54.6327H54.6346H54.6365H54.6385H54.6404H54.6424H54.6443H54.6463H54.6482H54.6501H54.6521H54.654H54.656H54.6579H54.6599H54.6618H54.6638H54.6657H54.6677H54.6697H54.6716H54.6736H54.6755H54.6775H54.6795H54.6814H54.6834H54.6853H54.6873H54.6893H54.6912H54.6932H54.6952H54.6971H54.6991H54.7011H54.7031H54.705H54.707H54.709H54.711H54.7129H54.7149H54.7169H54.7189H54.7209H54.7228H54.7248H54.7268H54.7288H54.7308H54.7328H54.7348H54.7367H54.7387H54.7407H54.7427H54.7447H54.7467H54.7487H54.7507H54.7527H54.7547H54.7567H54.7587H54.7607H54.7627H54.7647H54.7667H54.7687H54.7707H54.7727H54.7747H54.7767H54.7787H54.7807H54.7827H54.7847H54.7867H54.7887H54.7907H54.7928H54.7948H54.7968H54.7988H54.8008H54.8028H54.8048H54.8068H54.8089H54.8109H54.8129H54.8149H54.8169H54.8189H54.821H54.823H54.825H54.827H54.829H54.8311H54.8331H54.8351H54.8371H54.8392H54.8412H54.8432H54.8452H54.8473H54.8493H54.8513H54.8534H54.8554H54.8574H54.8594H54.8615H54.8635H54.8655H54.8676H54.8696H54.8716H54.8737H54.8757H54.8777H54.8798H54.8818H54.8838H54.8859H54.8879H54.89H54.892H54.894H54.8961H54.8981H54.9001H54.9022H54.9042H54.9063H54.9083H54.9104H54.9124H54.9144H54.9165H54.9185H54.9206H54.9226H54.9246H54.9267H54.9287H54.9308H54.9328H54.9349H54.9369H54.939H54.941H54.9431H54.9451H54.9471H54.9492H54.9512H54.9533H54.9553H54.9574H54.9594H54.9615H54.9635H54.9656H54.9676H54.9697H54.9717H54.9738H54.9758H54.9779H54.9799H54.982H54.984H54.9861H54.9881H54.9902H54.9922H54.9943H54.9963H54.9984H55.0004H55.0025H55.0045H55.0066H55.0086H55.0107H55.0128H55.0148H55.0169H55.0189H55.021H55.023H55.0251H55.0271H55.0292H55.0312H55.0333H55.0353H55.0374H55.0394H55.0415H55.0435H55.0456H55.0477H55.0497H55.0518H55.0538H55.0559H55.0579H55.06H55.062H55.0641H55.0661H55.0682H55.0702H55.0723H55.0743H55.0764H55.0784H55.0805H55.0825H55.0846H55.0867H55.0887H55.0908H55.0928H55.0949H55.0969H55.099H55.101H55.1031H55.1051H55.1072H55.1092H55.1113H55.1133H55.1154H55.1174H55.1195H55.1215H55.1236H55.1256H55.1277H55.1297H55.1317H55.1338H55.1358H55.1379H55.1399H55.142H55.144H55.1461H55.1481H55.1502H55.1522H55.1543H55.1563H55.1583H55.1604H55.1624H55.1645H55.1665H55.1686H55.1706H55.1726H55.1747H55.1767H55.1788H55.1808H55.1828H55.1849H55.1869H55.189H55.191H55.193H55.1951H55.1971H55.1991H55.2012H55.2032H55.2052H55.2073H55.2093H55.2113H55.2134H55.2154H55.2174H55.2195H55.2215H55.2235H55.2256H55.2276H55.2296H55.2317H55.2337H55.2357H55.2377H55.2398H55.2418H55.2438H55.2458H55.2479H55.2499H55.2519H55.2539H55.256H55.258H55.26H55.262H55.264H55.2661H55.2681H55.2701H55.2721H55.2741H55.2761H55.2782H55.2802H55.2822H55.2842H55.2862H55.2882H55.2902H55.2922H55.2943H55.2963H55.2983H55.3003H55.3023H55.3043H55.3063H55.3083H55.3103H55.3123H55.3143H55.3163H55.3183H55.3203H55.3223H55.3243H55.3263H55.3283H55.3303H55.3323H55.3343H55.3363H55.3383H55.3403H55.3423H55.3442H55.3462H55.3482H55.3502H55.3522H55.3542H55.3562H55.3582H55.3601H55.3621H55.3641H55.3661H55.3681H55.37H55.372H55.374H55.376H55.3779H55.3799H55.3819H55.3839H55.3858H55.3878H55.3898H55.3917H55.3937H55.3957H55.3976H55.3996H55.4016H55.4035H55.4055H55.4075H55.4094H55.4114H55.4133H55.4153H55.4172H55.4192H55.4212H55.4231H55.4251H55.427H55.429H55.4309H55.4328H55.4348H55.4367H55.4387H55.4406H55.4426H55.4445H55.4464H55.4484H55.4503H55.4522H55.4542H55.4561H55.458H55.46H55.4619H55.4638H55.4658H55.4677H55.4696H55.4715H55.4735H55.4754H55.4773H55.4792H55.4811H55.483H55.485H55.4869H55.4888H55.4907H55.4926H55.4945H55.4964H55.4983H55.5002H55.5021H55.504H55.5059H55.5078H55.5097H55.5116H55.5135H55.5154H55.5173H55.5192H55.5211H55.523H55.5249H55.5268H55.5286H55.5305H55.5324H55.5343H55.5362H55.538H55.5399H55.5418H55.5437H55.5455H55.5474H55.5493H55.5511Z" stroke="#E1ECEF" stroke-width="3"/>
<path d="M9.48831 5.89863V4.39863H7.98831H3.5V1.5H109.5V4.39863H105.012H103.512V5.89863V54.0507V55.5507H105.012H109.5V58.4493H105.012H103.512V59.9493V108.101V109.601H105.012H109.5V112.5H3.5V109.601H7.98831H9.48831V108.101V59.9493V58.4493H7.98831H3.5V55.5507H7.98831H9.48831V54.0507V5.89863ZM57.5511 99.8506H57.5672L57.5833 99.8502C72.0854 99.5388 83.4653 92.3329 89.0572 82.5662C94.6631 72.7751 94.385 60.4923 85.7227 50.3911L57.2675 14.0031L56.1053 12.5169L54.9193 13.9842L23.8311 52.4457L23.8012 52.4827L23.7737 52.5215C12.2659 68.7666 20.3573 89.8599 40.5442 97.1138L40.5465 97.1147C45.4218 98.8576 50.8801 99.8506 56.5319 99.8506H56.5337H56.5356H56.5375H56.5393H56.5412H56.5431H56.545H56.5468H56.5487H56.5506H56.5525H56.5544H56.5562H56.5581H56.56H56.5619H56.5638H56.5657H56.5676H56.5695H56.5714H56.5733H56.5752H56.577H56.579H56.5809H56.5828H56.5847H56.5866H56.5885H56.5904H56.5923H56.5942H56.5961H56.598H56.5999H56.6019H56.6038H56.6057H56.6076H56.6095H56.6115H56.6134H56.6153H56.6172H56.6192H56.6211H56.623H56.6249H56.6269H56.6288H56.6307H56.6327H56.6346H56.6365H56.6385H56.6404H56.6424H56.6443H56.6463H56.6482H56.6501H56.6521H56.654H56.656H56.6579H56.6599H56.6618H56.6638H56.6657H56.6677H56.6697H56.6716H56.6736H56.6755H56.6775H56.6795H56.6814H56.6834H56.6853H56.6873H56.6893H56.6912H56.6932H56.6952H56.6971H56.6991H56.7011H56.7031H56.705H56.707H56.709H56.711H56.7129H56.7149H56.7169H56.7189H56.7209H56.7228H56.7248H56.7268H56.7288H56.7308H56.7328H56.7348H56.7367H56.7387H56.7407H56.7427H56.7447H56.7467H56.7487H56.7507H56.7527H56.7547H56.7567H56.7587H56.7607H56.7627H56.7647H56.7667H56.7687H56.7707H56.7727H56.7747H56.7767H56.7787H56.7807H56.7827H56.7847H56.7867H56.7887H56.7907H56.7928H56.7948H56.7968H56.7988H56.8008H56.8028H56.8048H56.8068H56.8089H56.8109H56.8129H56.8149H56.8169H56.8189H56.821H56.823H56.825H56.827H56.829H56.8311H56.8331H56.8351H56.8371H56.8392H56.8412H56.8432H56.8452H56.8473H56.8493H56.8513H56.8534H56.8554H56.8574H56.8594H56.8615H56.8635H56.8655H56.8676H56.8696H56.8716H56.8737H56.8757H56.8777H56.8798H56.8818H56.8838H56.8859H56.8879H56.89H56.892H56.894H56.8961H56.8981H56.9001H56.9022H56.9042H56.9063H56.9083H56.9104H56.9124H56.9144H56.9165H56.9185H56.9206H56.9226H56.9246H56.9267H56.9287H56.9308H56.9328H56.9349H56.9369H56.939H56.941H56.9431H56.9451H56.9471H56.9492H56.9512H56.9533H56.9553H56.9574H56.9594H56.9615H56.9635H56.9656H56.9676H56.9697H56.9717H56.9738H56.9758H56.9779H56.9799H56.982H56.984H56.9861H56.9881H56.9902H56.9922H56.9943H56.9963H56.9984H57.0004H57.0025H57.0045H57.0066H57.0086H57.0107H57.0128H57.0148H57.0169H57.0189H57.021H57.023H57.0251H57.0271H57.0292H57.0312H57.0333H57.0353H57.0374H57.0394H57.0415H57.0435H57.0456H57.0477H57.0497H57.0518H57.0538H57.0559H57.0579H57.06H57.062H57.0641H57.0661H57.0682H57.0702H57.0723H57.0743H57.0764H57.0784H57.0805H57.0825H57.0846H57.0867H57.0887H57.0908H57.0928H57.0949H57.0969H57.099H57.101H57.1031H57.1051H57.1072H57.1092H57.1113H57.1133H57.1154H57.1174H57.1195H57.1215H57.1236H57.1256H57.1277H57.1297H57.1317H57.1338H57.1358H57.1379H57.1399H57.142H57.144H57.1461H57.1481H57.1502H57.1522H57.1543H57.1563H57.1583H57.1604H57.1624H57.1645H57.1665H57.1686H57.1706H57.1726H57.1747H57.1767H57.1788H57.1808H57.1828H57.1849H57.1869H57.189H57.191H57.193H57.1951H57.1971H57.1991H57.2012H57.2032H57.2052H57.2073H57.2093H57.2113H57.2134H57.2154H57.2174H57.2195H57.2215H57.2235H57.2256H57.2276H57.2296H57.2317H57.2337H57.2357H57.2377H57.2398H57.2418H57.2438H57.2458H57.2479H57.2499H57.2519H57.2539H57.256H57.258H57.26H57.262H57.264H57.2661H57.2681H57.2701H57.2721H57.2741H57.2761H57.2782H57.2802H57.2822H57.2842H57.2862H57.2882H57.2902H57.2922H57.2943H57.2963H57.2983H57.3003H57.3023H57.3043H57.3063H57.3083H57.3103H57.3123H57.3143H57.3163H57.3183H57.3203H57.3223H57.3243H57.3263H57.3283H57.3303H57.3323H57.3343H57.3363H57.3383H57.3403H57.3423H57.3442H57.3462H57.3482H57.3502H57.3522H57.3542H57.3562H57.3582H57.3601H57.3621H57.3641H57.3661H57.3681H57.37H57.372H57.374H57.376H57.3779H57.3799H57.3819H57.3839H57.3858H57.3878H57.3898H57.3917H57.3937H57.3957H57.3976H57.3996H57.4016H57.4035H57.4055H57.4075H57.4094H57.4114H57.4133H57.4153H57.4172H57.4192H57.4212H57.4231H57.4251H57.427H57.429H57.4309H57.4328H57.4348H57.4367H57.4387H57.4406H57.4426H57.4445H57.4464H57.4484H57.4503H57.4522H57.4542H57.4561H57.458H57.46H57.4619H57.4638H57.4658H57.4677H57.4696H57.4715H57.4735H57.4754H57.4773H57.4792H57.4811H57.483H57.485H57.4869H57.4888H57.4907H57.4926H57.4945H57.4964H57.4983H57.5002H57.5021H57.504H57.5059H57.5078H57.5097H57.5116H57.5135H57.5154H57.5173H57.5192H57.5211H57.523H57.5249H57.5268H57.5286H57.5305H57.5324H57.5343H57.5362H57.538H57.5399H57.5418H57.5437H57.5455H57.5474H57.5493H57.5511Z" fill="#E1ECEF" fill-opacity="0.6" stroke="#E1ECEF" stroke-width="3"/>
</svg>
