<?xml version="1.0" encoding="utf-8"?>
<!-- Generator: Adobe Illustrator 23.0.5, SVG Export Plug-In . SVG Version: 6.00 Build 0)  -->
<svg version="1.1" id="Слой_1" xmlns="http://www.w3.org/2000/svg" xmlns:xlink="http://www.w3.org/1999/xlink" x="0px" y="0px"
	 viewBox="0 0 228 279" style="enable-background:new 0 0 228 279;" xml:space="preserve">
<style type="text/css">
	.st0{fill:#3C0803;}
	.st1{fill:#DEE8EC;}
</style>
<rect x="42" y="46.1" class="st0" width="147" height="194"/>
<path class="st1" d="M228,14.9V3.1H0v11.7h11.2v119.9H0v11.7h11.2v119.9H0v11.7h228v-11.7h-11.2V146.5H228v-11.7h-11.2V14.9H228z
	 M34.1,240.7c0,3.2-2.6,5.9-5.8,5.9c-3.2,0-5.8-2.6-5.8-5.9V41.9c0-3.2,2.6-5.9,5.8-5.9c3.2,0,5.8,2.6,5.8,5.9V240.7z M116,223
	c-0.6,0-1.3,0-1.9,0c-10.3,0-20.2-1.9-29-5.3c-36.4-13.9-50.3-53.8-30.1-84.3l58.2-76.6l53.3,72.5C197.5,167.6,168.5,221.8,116,223z
	"/>
<path class="st0" d="M105,2c1.6-0.6,3.1-1.8,4.7-1.8C136,0,162.3-0.1,188.6,0c4.7,0,6.7,3.2,6.3,7.3c-0.5,5.6-1.7,11.1-2.5,16.8
	c-0.5,3-0.6,6.1-1.4,9c-0.5,1.7-2.3,4.2-3.3,4.2c-1.8,0-3.8-1.7-5-3.1c-1-1.1-0.8-3.1-1.2-4.7c-1.1-4.7-0.6-9.1-7.3-11.6
	c-1.1-0.5-2-2.4-3-3.7c-2.2-2.9-7.8-4.3-9.5-4.5c-17.5-2.2-30.2-3-47.6-5c-3-0.4-5.9-0.8-8.9-1.2C105.1,2.9,105.1,2.4,105,2z"/>
<path d="M48,49.1v-0.3c0-0.6,0.2-1,0.5-1.4c0.4-0.4,0.8-0.5,1.4-0.5c0.6,0,1.1,0.2,1.5,0.5c0.4,0.3,0.5,0.8,0.5,1.4v0.3
	c0,0.5-0.2,1-0.5,1.3c-0.3,0.3-0.8,0.5-1.4,0.5c-0.6,0-1.1-0.2-1.4-0.5C48.2,50.1,48,49.6,48,49.1z M60.8,43v12.1h-2.5V43H60.8z
	 M65.6,48.2v1.9h-5.5v-1.9H65.6z M66.2,43v2h-6.1v-2H66.2z M74.3,43h2.5v8c0,0.9-0.2,1.7-0.6,2.3c-0.4,0.6-0.9,1.1-1.6,1.4
	c-0.7,0.3-1.5,0.5-2.4,0.5c-0.9,0-1.7-0.2-2.4-0.5c-0.7-0.3-1.2-0.8-1.6-1.4c-0.4-0.6-0.6-1.4-0.6-2.3v-8H70v8c0,0.5,0.1,1,0.3,1.3
	c0.2,0.3,0.4,0.6,0.7,0.8c0.3,0.2,0.7,0.2,1.2,0.2c0.5,0,0.8-0.1,1.2-0.2c0.3-0.2,0.6-0.4,0.7-0.8c0.2-0.3,0.3-0.8,0.3-1.3V43z
	 M86.6,53.2v1.9h-6.1v-1.9H86.6z M81.3,43v12.1h-2.5V43H81.3z M95.8,53.2v1.9h-6.1v-1.9H95.8z M90.5,43v12.1H88V43H90.5z"/>
</svg>
