<svg width="61" height="61" viewBox="0 0 61 61" fill="none" xmlns="http://www.w3.org/2000/svg">
<circle cx="30.5" cy="30.5" r="29.5" fill="#C19908" stroke="#F9D102" stroke-width="2"/>
<path d="M31.4097 42.6261C31.4097 42.6261 31.7543 44.6959 32.0784 47.8719C32.4617 51.5621 33.4564 53.8159 33.7272 53.5005C33.7272 53.5005 33.8801 53.7252 34.6595 53.6181C35.4389 53.511 35.537 52.1517 35.537 52.1517C35.537 52.1517 34.6559 52.7626 34.0196 49.3871C33.3834 46.0115 32.904 42.5575 32.904 42.5575L38.6551 49.0139C38.6551 49.0139 38.0711 46.7768 38.513 45.9187C38.9541 45.0428 39.5628 44.7118 39.5628 44.7118C39.5628 44.7118 41.1582 44.9059 42.6043 45.7309C44.0504 46.5558 45.1997 47.1269 45.1997 47.1269C45.1997 47.1269 44.7856 45.096 47.0967 43.7955C49.4079 42.4951 53.2174 41.215 53.2174 41.215C53.2174 41.215 49.3451 39.5745 48.3485 38.4438C47.351 37.2952 46.0979 36.0158 46.0979 36.0158C46.0979 36.0158 46.4663 33.5567 48.5284 32.2677C50.6083 30.9779 53.8689 28.2257 53.8689 28.2257C53.8689 28.2257 51.6272 27.5442 51.4329 25.2536C51.2387 22.963 53.3912 17.8194 53.3912 17.8194C53.3912 17.8194 50.2517 20.1027 48.2845 20.3534C46.3174 20.6041 45.1107 19.9465 44.5413 19.5804C43.9719 19.2144 43.7186 18.7447 43.7186 18.7447C43.7186 18.7447 41.8886 21.9839 40.4564 23.4044C40.0814 23.7782 40.9285 23.2045 40.4564 23.4044C37.9398 24.5004 36.957 23.672 37.0264 21.6902C37.0617 20.9042 36.9465 21.8899 37.1103 21.1872C37.5711 19.1874 38.9224 14.0628 38.9224 14.0628C38.9224 14.0628 37.3081 15.0104 35.845 14.204C34.3819 13.3977 33.4285 13.2098 32.7373 11.7441C32.0461 10.2785 30.8052 7.32285 30.8052 7.32285C30.8052 7.32285 30.1876 9.40118 29.3813 10.8643C28.575 12.3274 28.5504 13.3446 27.2278 14.047C25.9053 14.7494 25.3113 15.4006 24.6854 15.3581C24.0596 15.3155 22.3654 14.9119 22.3654 14.9119C22.3654 14.9119 23.8114 17.2877 24.2973 18.9411C24.7646 20.5774 24.8584 20.6801 24.8379 21.7862C24.8387 21.804 24.8371 21.7684 24.8379 21.7862C24.8166 22.8746 23.2893 24.9412 21.313 24.6041C21.313 24.6041 21.0735 24.4368 20.9069 24.3019C19.4291 23.1754 20.2664 23.9391 19.2405 22.5601C18.2146 21.1811 16.975 19.4198 16.975 19.4198C16.975 19.4198 16.7797 20.2131 15.6132 20.8192C14.4467 21.4254 14.5683 22.1329 12.5079 21.9066C10.4475 21.6803 6.86092 20.4367 6.86092 20.4367C6.86092 20.4367 8.90111 22.5534 9.47939 24.666C10.0577 26.7786 10.8689 27.3652 10.4572 28.8815C10.0455 30.3978 9.69094 31.2162 9.15338 31.5439C8.61664 31.8895 12.0575 32.6763 13.5061 33.5546C14.9724 34.432 17.0867 35.8323 17.0867 35.8323L17.4749 36.1354C17.9934 36.5572 18.1514 37.2808 17.8574 37.8648C17.4971 38.5587 16.9509 39.4751 16.2008 40.2225C14.7679 41.6253 14.6551 42.6643 13.478 43.0392C12.3009 43.4141 11.2266 44.0874 11.2266 44.0874C11.2266 44.0874 14.9445 44.3089 16.2508 45.1937C17.557 46.0785 18.5267 48.1731 18.5267 48.1731L22.6944 45.3792C23.3338 44.9398 24.2153 45.1133 24.6368 45.7535C24.7898 45.9782 24.8901 46.2232 24.921 46.507C25.0403 47.5532 24.6685 49.549 24.6685 49.549C24.6685 49.549 26.8889 47.8249 28.3186 46.351C29.7677 44.9119 31.4097 42.6261 31.4097 42.6261Z" fill="#F9D102"/>
</svg>
