<svg width="109" height="108" viewBox="0 0 109 108" fill="none" xmlns="http://www.w3.org/2000/svg">
<path d="M56.9312 81.8199L57.4244 81.7378L57.2268 80.5513L56.5251 81.5282L56.9312 81.8199ZM56.9312 81.8199C57.4244 81.7378 57.4244 81.7378 57.4244 81.7379L57.4244 81.7381L57.4245 81.7388L57.425 81.7416L57.4268 81.7525L57.4337 81.7947C57.4398 81.832 57.4488 81.8874 57.4605 81.9604C57.4839 82.1064 57.518 82.3228 57.5613 82.6051C57.6479 83.1697 57.7711 83.9984 57.9176 85.0562C58.2106 87.1719 58.5972 90.2049 58.9718 93.8769M56.9312 81.8199L56.5251 81.5282L56.525 81.5283L56.5245 81.5289L56.5226 81.5316L56.5147 81.5426L56.4828 81.5866C56.4547 81.6256 56.4127 81.6833 56.3581 81.7581C56.2488 81.9076 56.0886 82.1254 55.8859 82.3972C55.4804 82.941 54.9048 83.7007 54.2253 84.5637C52.8635 86.293 51.0947 88.4234 49.4442 90.0625L49.4441 90.0625L49.4376 90.0692C47.8057 91.7515 45.7151 93.5837 44.0254 95.0004C43.2664 95.6368 42.5905 96.1875 42.0767 96.6007C42.1362 96.2085 42.2014 95.7491 42.2626 95.2549C42.4427 93.8023 42.5964 91.9946 42.4515 90.7219C42.3703 89.9776 42.106 89.3367 41.7142 88.76C40.586 87.0505 38.2385 86.5915 36.5345 87.7607C36.5338 87.7612 36.5331 87.7617 36.5324 87.7622L27.3913 93.8899C27.3466 93.8028 27.2964 93.7063 27.2409 93.6015C26.9792 93.1073 26.5984 92.4269 26.1212 91.6809C25.1755 90.2023 23.8176 88.412 22.2233 87.3321C21.4003 86.7746 20.2346 86.3425 18.9907 86.0032C17.7369 85.6612 16.361 85.4024 15.0892 85.2092C13.9252 85.0324 12.8416 84.9096 12.0086 84.8284C12.0567 84.8031 12.1058 84.7775 12.1558 84.7516C13.1017 84.262 14.3732 83.6708 15.6948 83.2499C17.2064 82.7685 18.0294 81.8472 18.8667 80.7087C19.0219 80.4977 19.178 80.2788 19.3395 80.0522C20.0474 79.0594 20.8615 77.9177 22.1774 76.6296L22.1806 76.6264C23.9651 74.848 25.2538 72.6804 26.0949 71.0608L26.0977 71.0552C26.8844 69.4931 26.4587 67.5694 25.084 66.4509L25.084 66.4508L25.0761 66.4446L24.1799 65.7452L24.1646 65.7332L24.1484 65.7225L23.8723 66.1393L24.1483 65.7224L24.1481 65.7223L24.1475 65.7218L24.1447 65.72L24.1341 65.713L24.0923 65.6854L23.9312 65.579C23.7909 65.4865 23.5867 65.3521 23.3311 65.1845C22.82 64.8494 22.1032 64.3814 21.2806 63.8501C19.6368 62.7885 17.5655 61.4707 15.8659 60.4537M58.9718 93.8769C59.411 98.1039 60.1993 101.497 60.9487 103.731C61.3251 104.854 61.6843 105.661 61.9727 106.133C62.0261 106.22 62.0734 106.29 62.1139 106.345M58.9718 93.8769C58.9718 93.8765 58.9718 93.8762 58.9717 93.8759L58.4744 93.9276M58.9718 93.8769L58.4744 93.9276M58.9718 93.8769L58.4744 93.9276M58.9718 93.8769L58.4744 93.9276M15.8659 60.4537C15.8663 60.4539 15.8667 60.4542 15.8671 60.4544L15.6079 60.882L15.8647 60.4529C15.8651 60.4532 15.8655 60.4534 15.8659 60.4537ZM15.8659 60.4537C14.3118 59.5117 11.8191 58.623 9.71913 57.8743C9.48572 57.791 9.25716 57.7096 9.03529 57.6299C7.90322 57.2236 6.9534 56.8689 6.36366 56.5714C6.2739 56.5261 6.19912 56.4853 6.13738 56.4492M6.13738 56.4492C6.72634 55.9877 7.20201 55.3036 7.62655 54.4126C8.12502 53.3663 8.57653 51.9837 9.05346 50.2272C9.56352 48.3487 9.30893 47.0252 8.76784 45.5728C8.60351 45.1318 8.41781 44.6883 8.22035 44.2168C7.76888 43.1387 7.25591 41.9137 6.79622 40.2344C6.10463 37.7079 4.55081 35.2086 3.19467 33.3612C2.71604 32.7092 2.25838 32.1336 1.86584 31.6609M6.13738 56.4492C5.98359 56.3593 5.91076 56.2988 5.88909 56.272C5.88848 56.2713 5.8882 56.2709 5.8882 56.2709C5.88827 56.2708 5.94811 56.3486 5.92737 56.4803C5.90921 56.5957 5.84526 56.6514 5.83208 56.6616L5.56152 56.2413M6.13738 56.4492C6.03567 56.5289 5.93057 56.6019 5.82178 56.6682L5.56152 56.2413M1.86584 31.6609C2.67678 31.9223 3.71474 32.2475 4.86288 32.5849C7.52804 33.3681 10.8237 34.228 13.2495 34.4944C15.683 34.7617 16.9272 34.4882 17.9191 33.8915C18.3004 33.6621 18.64 33.3859 18.9717 33.116C19.0471 33.0548 19.122 32.9938 19.1969 32.9338C19.6114 32.6018 20.0699 32.2598 20.7019 31.9314C22.1202 31.1944 22.9661 30.3334 23.4602 29.6376C23.5557 29.5032 23.6377 29.3754 23.708 29.2563M1.86584 31.6609C1.6994 31.4604 1.54467 31.2785 1.40501 31.1171C1.34869 31.0521 1.29481 30.9903 1.24358 30.932C3.57025 31.7 9.5404 33.584 13.3041 33.9974C16.6432 34.3641 17.4994 33.6683 18.6452 32.7369C19.1313 32.3419 19.6694 31.9044 20.4713 31.4878C22.2483 30.5644 23.0489 29.4528 23.3878 28.8037C23.4662 28.9147 23.5683 29.059 23.6906 29.2317C23.6963 29.2398 23.7022 29.248 23.708 29.2563M1.86584 31.6609C1.73189 31.6177 1.60413 31.5762 1.48309 31.5368C1.28998 31.4738 1.11393 31.4159 0.957076 31.3639C2.31412 32.9216 5.2958 36.6468 6.31396 40.3664C6.78237 42.0776 7.31702 43.3551 7.77264 44.4437C8.6153 46.4571 9.18769 47.8247 8.57093 50.0962C7.6207 53.5959 6.80225 55.4849 5.56152 56.2413M23.708 29.2563C24.0125 29.686 24.4377 30.2846 24.9343 30.979C25.9462 32.3942 27.2555 34.2092 28.4422 35.8043C29.0274 36.5908 29.3435 37.0673 29.5416 37.3792C29.5858 37.4488 29.6265 37.5143 29.6648 37.576C29.784 37.7682 29.8811 37.9246 29.9941 38.0578C30.1565 38.2494 30.3558 38.4047 30.6839 38.6493C30.7673 38.7115 30.861 38.7808 30.9676 38.8597C31.2946 39.1015 31.7424 39.4326 32.3809 39.9192M23.708 29.2563C23.8191 29.068 23.901 28.9016 23.9604 28.7654C23.962 28.7617 23.9636 28.758 23.9652 28.7543C24.8 29.9341 26.9752 32.9947 28.8434 35.5058C30.0082 37.0715 30.1324 37.4405 30.3639 37.7207C30.6031 38.0101 30.9567 38.2049 32.6897 39.5259M32.3809 39.9192C32.5821 40.0819 32.8219 40.2602 33.0084 40.3959C33.1034 40.4649 33.186 40.524 33.245 40.566L33.3146 40.6152L33.3335 40.6285L33.3386 40.632L33.34 40.633L33.3404 40.6333L33.3405 40.6333L33.3405 40.6334L33.6269 40.2235M32.3809 39.9192C32.3828 39.9207 32.3847 39.9221 32.3866 39.9236L32.6897 39.5259M32.3809 39.9192C32.3789 39.9176 32.377 39.9161 32.375 39.9145L32.6897 39.5259M33.6269 40.2235L33.3405 40.6334L33.4324 40.6975L33.5428 40.7164C36.0284 41.1404 38.2026 40.0458 39.7345 38.5648C41.2494 37.1002 42.2346 35.1621 42.2627 33.7294L42.247 33.7291M33.6269 40.2235C38.1787 40.9999 41.6985 36.252 41.7625 33.7357L42.247 33.7291M33.6269 40.2235C33.6269 40.2235 33.0743 39.8374 32.6897 39.5259M42.247 33.7291L42.2627 33.7289C42.2868 32.4346 42.2445 31.6939 42.05 30.7899C41.9202 30.1867 41.7201 29.5035 41.433 28.5228C41.3051 28.0858 41.1599 27.5898 40.9959 27.0154L40.9948 27.0117C40.4191 25.053 39.2843 22.6912 38.3073 20.8387C37.8386 19.95 37.4022 19.1711 37.0741 18.5996C37.378 18.6675 37.7242 18.7433 38.0883 18.8203C39.2384 19.0638 40.613 19.3297 41.377 19.3817C42.2794 19.4431 43.1108 18.9993 44.0072 18.4386C44.2504 18.2863 44.5032 18.1222 44.7707 17.9484C45.527 17.4571 46.4013 16.8891 47.5135 16.2984C49.149 15.4297 49.9911 14.3522 50.6548 13.0724C50.9265 12.5486 51.1714 11.9843 51.4261 11.3977C51.4753 11.2844 51.5249 11.1703 51.575 11.0554C51.888 10.3392 52.2332 9.57597 52.6872 8.75212C53.6363 7.02992 54.4683 4.95811 55.0605 3.32821C55.2724 2.74472 55.4545 2.21547 55.6011 1.77597C55.89 2.45715 56.2769 3.36579 56.7081 4.36821C57.6234 6.49636 58.7413 9.05473 59.5431 10.7548C60.8906 13.6123 62.7143 14.5219 65.0636 15.6936C65.6515 15.9869 66.2723 16.2965 66.9268 16.6572C68.7626 17.6689 70.6776 17.5711 72.0989 17.2412C72.648 17.1138 73.1303 16.9503 73.5164 16.7973C73.4491 17.054 73.3708 17.3528 73.2834 17.6869C72.9743 18.8683 72.551 20.4915 72.0945 22.2592C71.1822 25.792 70.1349 29.9094 69.6014 32.2248M42.247 33.7291L41.9441 33.7232L5.56152 56.2413M69.6014 32.2248C69.6015 32.2243 69.6016 32.2239 69.6017 32.2235L69.7798 32.265M69.6014 32.2248L69.7781 32.2655M69.6014 32.2248C69.5882 32.2811 69.576 32.3319 69.5648 32.3777M69.7798 32.265C69.7792 32.2652 69.7786 32.2653 69.7781 32.2655M69.7798 32.265C69.7801 32.265 69.7803 32.2649 69.7806 32.2649C69.9042 32.235 70.0127 32.2548 70.0988 32.2929C70.0954 32.3077 70.092 32.3224 70.0886 32.337L69.7798 32.265ZM69.7781 32.2655C69.682 32.2892 69.6119 32.3358 69.5648 32.3777M69.7781 32.2655L88.2194 91.9349M69.5648 32.3777C69.5296 32.4089 69.5073 32.4375 69.4964 32.452C69.4387 32.5287 69.4172 32.605 69.4142 32.6149C69.3911 32.6904 69.3841 32.7733 69.3816 32.8131C69.3789 32.8536 69.3744 32.9446 69.3918 33.0341C69.3947 33.0493 69.3999 33.0731 69.4091 33.1017M69.5648 32.3777C69.5365 32.4924 69.5139 32.5755 69.4963 32.634C69.4797 32.6891 69.471 32.7099 69.4712 32.71C69.4715 32.7101 69.48 32.6911 69.4976 32.6652C69.5083 32.6497 69.5491 32.5906 69.6269 32.5398C69.7121 32.4842 69.8726 32.4241 70.053 32.486C69.9813 32.7787 69.9373 32.9061 69.9115 32.9457C69.9113 33.0202 69.9094 33.1199 69.9049 33.2512C69.7436 33.2539 69.6179 33.1756 69.5492 33.108C69.4799 33.0399 69.4494 32.9693 69.44 32.9467C69.4272 32.916 69.4206 32.891 69.4176 32.8787C69.4117 32.8544 69.4098 32.8374 69.4096 32.8355C69.4097 32.8381 69.4124 32.878 69.4112 32.9883C69.4109 33.0212 69.4102 33.0588 69.4091 33.1017M69.4091 33.1017C69.4068 33.198 69.4025 33.3207 69.3955 33.4756L69.3953 33.4804C69.3137 35.8101 69.8378 37.6933 71.3654 38.5735C72.7465 39.3692 74.7483 39.2186 77.3487 38.1888M69.4091 33.1017C69.4151 33.1202 69.4229 33.1408 69.4328 33.1624C69.452 33.2039 69.5186 33.3369 69.6811 33.4127C69.7564 33.4479 69.8295 33.4611 69.8967 33.4606C69.8962 33.4729 69.8956 33.4853 69.895 33.4979C69.7416 37.8761 71.813 39.8153 77.0839 37.7557C77.0851 37.7919 77.0903 37.8329 77.1025 37.8767C77.1226 37.9491 77.16 38.0222 77.2184 38.0859C77.26 38.1315 77.3049 38.1646 77.3487 38.1888M77.3487 38.1888C77.4278 38.2324 77.5035 38.2466 77.5508 38.2513C77.6261 38.2587 77.688 38.2485 77.7216 38.2416C77.7591 38.2338 77.7916 38.2234 77.8161 38.2147C77.8647 38.1973 77.9102 38.1758 77.9474 38.1566C78.0233 38.1176 78.1038 38.0681 78.1761 38.0191C78.2486 37.97 78.3245 37.9136 78.3893 37.8576C78.4213 37.8299 78.4576 37.7963 78.4914 37.7589C78.5084 37.74 78.5291 37.7154 78.5495 37.6862C78.5681 37.6595 78.5976 37.6131 78.6199 37.5512C78.6364 37.5056 78.6614 37.4173 78.6479 37.3079M77.3487 38.1888C77.5647 38.1033 77.7847 38.0117 78.0089 37.9141C78.0259 37.9069 78.0416 37.9004 78.0562 37.8945C78.0518 37.9062 78.0477 37.9159 78.0443 37.9232C78.0339 37.9457 78.025 37.959 78.0239 37.9607C78.0218 37.9639 78.029 37.9529 78.0553 37.9233C78.0666 37.9105 78.0802 37.8957 78.0964 37.8786C78.1154 37.8712 78.1317 37.8653 78.1456 37.8605C78.1717 37.8514 78.1829 37.8487 78.1829 37.8486C78.1829 37.8486 78.1817 37.8489 78.1794 37.8493C78.1746 37.8502 78.1538 37.8539 78.1227 37.8539C78.1218 37.8539 78.1209 37.8539 78.1201 37.8539C78.1333 37.8403 78.1478 37.8256 78.1639 37.8096C78.3235 37.6512 78.485 37.4836 78.6479 37.3079M78.6479 37.3079C80.2143 35.6181 81.9048 33.1837 83.2362 31.1185C83.9748 29.9729 84.6092 28.9306 85.0591 28.1747C85.1806 27.9706 85.2886 27.7873 85.3817 27.6284M78.6479 37.3079C78.6446 37.2814 78.6391 37.2538 78.6307 37.2252C78.608 37.1481 78.5673 37.0767 78.5111 37.0174C78.4564 36.9597 78.3966 36.9231 78.3452 36.9003C78.3449 36.9001 78.3445 36.9 78.3442 36.8998C81.0299 33.9744 84.1213 28.8005 85.0579 27.1913C85.1356 27.3075 85.243 27.4577 85.3817 27.6284M85.3817 27.6284C85.3916 27.6406 85.4016 27.6529 85.4118 27.6653C85.7473 28.0723 86.2596 28.5927 86.9695 29.0491C88.3446 29.933 91.2478 31.5069 95.9429 30.9085C98.3247 30.6049 101.35 29.0919 103.728 27.7029C104.849 27.0478 105.845 26.4092 106.588 25.9145M85.3817 27.6284C85.461 27.493 85.5294 27.3754 85.5859 27.2776C85.6101 27.2357 85.6322 27.1975 85.652 27.1631C85.9502 27.5562 86.4698 28.1334 87.2399 28.6285C88.5542 29.4733 91.3393 30.9912 95.8797 30.4125C99.5336 29.9468 104.94 26.4429 106.912 25.0924C106.821 25.32 106.711 25.5964 106.588 25.9145M106.588 25.9145C106.538 26.0437 106.485 26.1798 106.43 26.3223C105.969 27.5233 105.359 29.1807 104.763 31.0053C104.167 32.8287 103.583 34.826 103.175 36.7051C102.769 38.5745 102.53 40.3669 102.648 41.7649C102.887 44.5846 104.393 46.4158 105.818 47.5292C106.529 48.0846 107.224 48.465 107.742 48.707C107.763 48.717 107.784 48.7267 107.805 48.7362M106.588 25.9145C106.64 25.8795 106.692 25.8452 106.742 25.8116C106.961 25.6648 107.155 25.5325 107.32 25.4186C106.2 28.2343 102.771 37.2914 103.147 41.7226C103.506 45.9586 106.899 47.8103 108.233 48.3791C108.198 48.4085 108.159 48.4413 108.116 48.4773C108.028 48.5505 107.924 48.6373 107.805 48.7362M107.805 48.7362C107.633 48.8786 107.43 49.0463 107.2 49.2354C106.422 49.8759 105.334 50.7608 104.096 51.7384C101.616 53.6977 98.5534 56.0146 96.1791 57.487L96.1776 57.4879C93.6867 59.0449 92.2295 61.3013 91.3971 63.1475C90.98 64.0724 90.7165 64.9013 90.5568 65.5008C90.4769 65.8007 90.4229 66.044 90.3885 66.214C90.3713 66.299 90.359 66.3658 90.3509 66.4122C90.3469 66.4354 90.3438 66.4536 90.3418 66.4664L90.3393 66.4816L90.3386 66.4862L90.3384 66.4877L90.3383 66.4882C90.3383 66.4883 90.3383 66.4884 90.3706 66.4933C90.4174 66.5004 90.5323 66.5177 90.814 66.5599L90.3383 66.4887L90.3014 66.7348L90.4755 66.9126L90.8327 66.5627M107.805 48.7362C108.011 48.831 108.188 48.9032 108.324 48.955C106.639 50.3575 100.546 55.3675 96.4426 57.9119C91.6831 60.887 90.8327 66.5627 90.8327 66.5627M90.8327 66.5627L90.4756 66.9126L90.4756 66.9127L90.476 66.9131L90.4775 66.9146L90.4836 66.9209L90.508 66.9458L90.6031 67.0434C90.6863 67.1289 90.8078 67.2542 90.9608 67.4128C91.267 67.73 91.6992 68.1807 92.2032 68.7141C93.212 69.7815 94.5052 71.1767 95.6497 72.4946L95.6522 72.4973C96.2786 73.208 97.3219 73.9659 98.4897 74.6918C99.6685 75.4246 101.016 76.15 102.284 76.7899C103.553 77.4304 104.748 77.9884 105.626 78.3861C105.721 78.4288 105.812 78.4697 105.898 78.5087M90.8327 66.5627C90.8327 66.5627 93.7249 69.5158 96.0273 72.1667C97.9423 74.3394 104.457 77.3273 106.586 78.2675C106.4 78.3319 106.169 78.4128 105.898 78.5087M105.898 78.5087C105.816 78.538 105.73 78.5686 105.64 78.6006C104.729 78.9257 103.459 79.3905 102.021 79.9494C99.1512 81.0651 95.5923 82.5645 92.893 84.0833C90.1036 85.6528 88.928 87.6875 88.4666 89.3559C88.2486 90.1443 88.1921 90.8423 88.1931 91.3596M105.898 78.5087C106.159 78.6256 106.383 78.725 106.564 78.8044C104.379 79.5678 97.5667 82.0273 93.1382 84.5191C88.9544 86.8732 88.64 90.2645 88.6989 91.6179C88.6462 91.5912 88.5864 91.5609 88.5201 91.527C88.4245 91.4783 88.3152 91.4224 88.1931 91.3596M88.1931 91.3596C87.933 91.2258 87.6149 91.0609 87.2487 90.8685C86.1721 90.3029 84.6798 89.5002 83.017 88.5517C81.2975 87.5708 79.4975 86.9689 78.1341 86.6122C77.4509 86.4335 76.8735 86.3153 76.4655 86.2416C76.2614 86.2048 76.0995 86.179 75.9876 86.1623C75.9316 86.154 75.8881 86.1479 75.8581 86.1439L75.8234 86.1393L75.8138 86.1381L75.811 86.1377L75.8101 86.1376L75.8098 86.1376C75.8097 86.1376 75.8096 86.1376 75.7492 86.6339M88.1931 91.3596C88.1932 91.3853 88.1934 91.4105 88.1937 91.4353C88.1962 91.6317 88.2068 91.8 88.2194 91.9349M75.7492 86.6339L75.8096 86.1376L75.6508 86.1182L75.5103 86.1946L75.7492 86.6339ZM75.7492 86.6339C75.5103 86.1946 75.5101 86.1947 75.5099 86.1948L75.5095 86.195L75.5087 86.1955L75.5065 86.1967L75.5007 86.2L75.483 86.21C75.4686 86.2183 75.4491 86.2299 75.425 86.2447C75.3766 86.2744 75.3095 86.3175 75.2272 86.3751C75.0627 86.4901 74.8371 86.663 74.5795 86.9019C74.0642 87.3797 73.42 88.1221 72.8806 89.1926C72.5736 89.7898 72.4647 90.5752 72.4472 91.3601C72.4293 92.1588 72.5055 93.0184 72.6122 93.8016C72.6609 94.1596 72.7163 94.5041 72.7729 94.8225M75.7492 86.6339C75.7492 86.6339 79.4315 87.082 82.7693 88.986C85.2068 90.3764 87.2789 91.4545 88.2194 91.9349M75.7492 86.6339L88.2194 91.9349M72.7729 94.8225L60.7533 81.329L59.6584 80.0998L59.8847 81.7303L60.38 81.6616M72.7729 94.8225C72.8368 95.1827 72.9022 95.5096 72.9608 95.7852L60.9807 82.336M72.7729 94.8225L73.4227 95.552C73.0889 93.9468 72.5887 90.8513 73.3261 89.4195L60.9807 82.336M60.38 81.6616C59.8847 81.7303 59.8847 81.7303 59.8847 81.7304L59.8848 81.7307L59.8849 81.7319L59.8856 81.7363L59.888 81.7538L59.8976 81.8225L59.9354 82.0897C59.9686 82.3234 60.0176 82.6659 60.081 83.1011C60.2079 83.9715 60.3924 85.213 60.6227 86.6982C61.0834 89.6681 61.7281 93.6147 62.4637 97.5175C63.1996 101.422 64.097 103.168 64.9227 103.909C65.252 104.205 65.5765 104.347 65.8698 104.39M60.38 81.6616L60.8752 81.5929L60.8753 81.5931L60.8754 81.5942L60.876 81.5984L60.8784 81.6156L60.8879 81.6835L60.9254 81.949C60.9406 82.0557 60.959 82.1852 60.9807 82.336M60.38 81.6616L60.9807 82.336M65.8698 104.39C65.8218 104.642 65.7504 104.941 65.6466 105.242C65.3714 106.039 64.9539 106.614 64.3639 106.695C63.5113 106.812 63.0527 106.74 62.8318 106.671C62.7381 106.641 62.6875 106.612 62.6665 106.598M65.8698 104.39C65.9637 104.404 66.0543 104.408 66.1409 104.404C66.2301 104.4 66.3108 104.387 66.3819 104.37C66.2217 105.285 65.747 107.01 64.4319 107.19C63.1569 107.366 62.6083 107.156 62.3968 107.019M65.8698 104.39C65.8813 104.33 65.8915 104.273 65.9004 104.218C65.9225 104.085 65.9369 103.974 65.9459 103.896C65.2477 103.794 63.9672 102.794 62.9551 97.4249C61.7808 91.1949 60.8379 84.8491 60.5073 82.5562L62.3968 107.019M62.6665 106.598L62.3259 106.098L62.1139 106.345M62.6665 106.598C62.663 106.596 62.6604 106.594 62.6584 106.593C62.6513 106.587 62.6523 106.587 62.6592 106.594C62.6626 106.598 62.6673 106.603 62.6731 106.61C62.676 106.614 62.6792 106.618 62.6826 106.622L62.6878 106.63L62.6665 106.598ZM62.1139 106.345L61.9006 106.593C61.9415 106.546 62.0285 106.486 62.1458 106.487C62.2387 106.487 62.2826 106.526 62.2648 106.513C62.2391 106.494 62.1876 106.444 62.1139 106.345ZM58.4744 93.9276C57.8943 88.2425 57.2858 84.093 57.0418 82.5167L58.4744 93.9276ZM58.4744 93.9276C59.3209 102.077 61.4592 107.191 62.1898 106.98M58.4744 93.9276L62.1898 106.98M62.1898 106.98C62.2174 106.962 62.2474 106.941 62.28 106.919M62.1898 106.98L62.3968 107.019M62.3968 107.019L62.28 106.919M62.28 106.919L62.6934 106.638L62.6927 106.637C62.693 106.637 62.6934 106.638 62.28 106.919ZM77.7849 37.7049C77.7332 37.6503 77.6953 37.5849 77.6734 37.5143C77.6901 37.5072 77.7067 37.5 77.7234 37.4929L77.9389 37.814C77.8924 37.7933 77.8365 37.7594 77.7849 37.7049ZM78.0537 37.8484C78.0328 37.845 78.0055 37.839 77.9743 37.8281L77.8117 37.4546L78.0835 37.7287C78.0838 37.7451 78.0832 37.7602 78.0822 37.7736C78.0799 37.8041 78.0749 37.8301 78.0697 37.8506C78.0646 37.85 78.0592 37.8492 78.0537 37.8484ZM78.0807 37.6854L77.8785 37.388C77.8871 37.3793 77.8957 37.3706 77.9044 37.3619C77.9219 37.3762 77.9392 37.3924 77.9561 37.4108C78.0117 37.4716 78.0471 37.541 78.066 37.6091C78.0735 37.6361 78.0781 37.6617 78.0807 37.6854Z" fill="#54AB5A" stroke="white"/>
</svg>
