<svg width="231" height="230" viewBox="0 0 231 230" fill="none" xmlns="http://www.w3.org/2000/svg">
<path d="M116.33 174.62C116.33 174.62 117.563 184.918 118.443 200.674C119.499 218.983 123.9 230.337 125.308 228.841C125.308 228.841 126.013 229.985 129.886 229.633C133.758 229.281 134.551 222.591 134.551 222.591C134.551 222.591 130.062 225.408 127.685 208.596C125.308 191.784 123.724 174.62 123.724 174.62L150.659 207.804C150.659 207.804 148.282 196.625 150.659 192.488C153.035 188.263 156.116 186.767 156.116 186.767C156.116 186.767 163.95 188.087 170.904 192.488C177.857 196.889 183.403 199.97 183.403 199.97C183.403 199.97 181.818 189.847 193.525 183.95C205.232 178.052 224.333 172.595 224.333 172.595C224.333 172.595 205.584 163.617 200.919 157.807C196.254 151.91 190.356 145.308 190.356 145.308C190.356 145.308 192.733 133.249 203.208 127.352C213.77 121.455 230.494 108.603 230.494 108.603C230.494 108.603 219.58 104.73 219.14 93.3756C218.699 82.0208 230.494 57.1107 230.494 57.1107C230.494 57.1107 214.474 67.6733 204.704 68.4655C194.934 69.2577 189.124 65.7368 186.395 63.8003C183.667 61.8638 182.523 59.4873 182.523 59.4873C182.523 59.4873 172.752 75.0671 165.358 81.7567C163.422 83.5172 167.735 80.8765 165.358 81.7567C152.683 86.5979 148.018 82.2849 148.81 72.5145C149.162 68.6415 148.37 73.4827 149.338 70.0499C152.067 60.2794 159.901 35.2813 159.901 35.2813C159.901 35.2813 151.715 39.5944 144.673 35.2813C137.631 30.9682 132.966 29.8239 129.886 22.4301C126.805 15.0363 121.347 0.160645 121.347 0.160645C121.347 0.160645 117.827 10.2831 113.514 17.3249C109.2 24.3666 108.848 29.3838 102.159 32.5526C95.4691 35.7214 92.3883 38.8022 89.3076 38.4501C86.2268 38.098 77.9528 35.7214 77.9528 35.7214C77.9528 35.7214 84.5544 47.7804 86.5789 56.0544C88.5154 64.2404 88.9555 64.7685 88.6034 70.2259C88.6034 70.3139 88.6034 70.1379 88.6034 70.2259C88.2513 75.5952 80.2413 85.4536 70.5589 83.3411C70.5589 83.3411 69.4147 82.4609 68.6225 81.7567C61.5807 75.8593 65.5417 79.8203 60.7885 72.7785C56.0354 65.7368 50.314 56.7586 50.314 56.7586C50.314 56.7586 49.1697 60.6315 43.2722 63.3602C37.3748 66.0889 37.8149 69.6097 27.6924 68.0254C17.5699 66.441 0.141602 59.4873 0.141602 59.4873C0.141602 59.4873 9.73596 70.4019 12.1125 80.9645C14.4891 91.5271 18.3621 94.6079 15.9855 102.002C13.6089 109.396 11.6724 113.357 8.94377 114.853C6.2151 116.437 23.0272 121.102 29.981 125.768C37.0227 130.433 47.1452 137.827 47.1452 137.827L48.9936 139.411C51.4582 141.611 52.0744 145.22 50.49 148.037C48.5535 151.382 45.6488 155.783 41.7759 159.304C34.382 165.905 33.5898 171.011 27.6924 172.595C21.7949 174.179 16.3376 177.26 16.3376 177.26C16.3376 177.26 34.6461 179.197 40.8956 183.862C47.1452 188.527 51.4582 199.09 51.4582 199.09L72.6715 186.238C75.9283 184.214 80.2413 185.27 82.1778 188.527C82.882 189.671 83.3221 190.904 83.4101 192.312C83.7622 197.505 81.4736 207.276 81.4736 207.276C81.4736 207.276 92.8284 199.266 100.222 192.312C107.704 185.534 116.33 174.62 116.33 174.62Z" fill="#54AB5A"/>
</svg>
