<svg width="109" height="114" viewBox="0 0 109 114" fill="none" xmlns="http://www.w3.org/2000/svg">
<rect x="8" y="2" width="94" height="110" fill="#BB2323"/>
<path d="M7.48831 5.89863V4.39863H5.98831H1.5V1.5H107.5V4.39863H103.012H101.512V5.89863V54.0507V55.5507H103.012H107.5V58.4493H103.012H101.512V59.9493V108.101V109.601H103.012H107.5V112.5H1.5V109.601H5.98831H7.48831V108.101V59.9493V58.4493H5.98831H1.5V55.5507H5.98831H7.48831V54.0507V5.89863ZM55.5511 99.8506H55.5672L55.5833 99.8502C70.0854 99.5388 81.4653 92.3329 87.0572 82.5662C92.6631 72.7751 92.385 60.4923 83.7227 50.3911L55.2675 14.0031L54.1053 12.5169L52.9193 13.9842L21.8311 52.4457L21.8012 52.4827L21.7737 52.5215C10.2659 68.7666 18.3573 89.8599 38.5442 97.1138L38.5465 97.1147C43.4218 98.8576 48.8801 99.8506 54.5319 99.8506H54.5337H54.5356H54.5375H54.5393H54.5412H54.5431H54.545H54.5468H54.5487H54.5506H54.5525H54.5544H54.5562H54.5581H54.56H54.5619H54.5638H54.5657H54.5676H54.5695H54.5714H54.5733H54.5752H54.577H54.579H54.5809H54.5828H54.5847H54.5866H54.5885H54.5904H54.5923H54.5942H54.5961H54.598H54.5999H54.6019H54.6038H54.6057H54.6076H54.6095H54.6115H54.6134H54.6153H54.6172H54.6192H54.6211H54.623H54.6249H54.6269H54.6288H54.6307H54.6327H54.6346H54.6365H54.6385H54.6404H54.6424H54.6443H54.6463H54.6482H54.6501H54.6521H54.654H54.656H54.6579H54.6599H54.6618H54.6638H54.6657H54.6677H54.6697H54.6716H54.6736H54.6755H54.6775H54.6795H54.6814H54.6834H54.6853H54.6873H54.6893H54.6912H54.6932H54.6952H54.6971H54.6991H54.7011H54.7031H54.705H54.707H54.709H54.711H54.7129H54.7149H54.7169H54.7189H54.7209H54.7228H54.7248H54.7268H54.7288H54.7308H54.7328H54.7348H54.7367H54.7387H54.7407H54.7427H54.7447H54.7467H54.7487H54.7507H54.7527H54.7547H54.7567H54.7587H54.7607H54.7627H54.7647H54.7667H54.7687H54.7707H54.7727H54.7747H54.7767H54.7787H54.7807H54.7827H54.7847H54.7867H54.7887H54.7907H54.7928H54.7948H54.7968H54.7988H54.8008H54.8028H54.8048H54.8068H54.8089H54.8109H54.8129H54.8149H54.8169H54.8189H54.821H54.823H54.825H54.827H54.829H54.8311H54.8331H54.8351H54.8371H54.8392H54.8412H54.8432H54.8452H54.8473H54.8493H54.8513H54.8534H54.8554H54.8574H54.8594H54.8615H54.8635H54.8655H54.8676H54.8696H54.8716H54.8737H54.8757H54.8777H54.8798H54.8818H54.8838H54.8859H54.8879H54.89H54.892H54.894H54.8961H54.8981H54.9001H54.9022H54.9042H54.9063H54.9083H54.9104H54.9124H54.9144H54.9165H54.9185H54.9206H54.9226H54.9246H54.9267H54.9287H54.9308H54.9328H54.9349H54.9369H54.939H54.941H54.9431H54.9451H54.9471H54.9492H54.9512H54.9533H54.9553H54.9574H54.9594H54.9615H54.9635H54.9656H54.9676H54.9697H54.9717H54.9738H54.9758H54.9779H54.9799H54.982H54.984H54.9861H54.9881H54.9902H54.9922H54.9943H54.9963H54.9984H55.0004H55.0025H55.0045H55.0066H55.0086H55.0107H55.0128H55.0148H55.0169H55.0189H55.021H55.023H55.0251H55.0271H55.0292H55.0312H55.0333H55.0353H55.0374H55.0394H55.0415H55.0435H55.0456H55.0477H55.0497H55.0518H55.0538H55.0559H55.0579H55.06H55.062H55.0641H55.0661H55.0682H55.0702H55.0723H55.0743H55.0764H55.0784H55.0805H55.0825H55.0846H55.0867H55.0887H55.0908H55.0928H55.0949H55.0969H55.099H55.101H55.1031H55.1051H55.1072H55.1092H55.1113H55.1133H55.1154H55.1174H55.1195H55.1215H55.1236H55.1256H55.1277H55.1297H55.1317H55.1338H55.1358H55.1379H55.1399H55.142H55.144H55.1461H55.1481H55.1502H55.1522H55.1543H55.1563H55.1583H55.1604H55.1624H55.1645H55.1665H55.1686H55.1706H55.1726H55.1747H55.1767H55.1788H55.1808H55.1828H55.1849H55.1869H55.189H55.191H55.193H55.1951H55.1971H55.1991H55.2012H55.2032H55.2052H55.2073H55.2093H55.2113H55.2134H55.2154H55.2174H55.2195H55.2215H55.2235H55.2256H55.2276H55.2296H55.2317H55.2337H55.2357H55.2377H55.2398H55.2418H55.2438H55.2458H55.2479H55.2499H55.2519H55.2539H55.256H55.258H55.26H55.262H55.264H55.2661H55.2681H55.2701H55.2721H55.2741H55.2761H55.2782H55.2802H55.2822H55.2842H55.2862H55.2882H55.2902H55.2922H55.2943H55.2963H55.2983H55.3003H55.3023H55.3043H55.3063H55.3083H55.3103H55.3123H55.3143H55.3163H55.3183H55.3203H55.3223H55.3243H55.3263H55.3283H55.3303H55.3323H55.3343H55.3363H55.3383H55.3403H55.3423H55.3442H55.3462H55.3482H55.3502H55.3522H55.3542H55.3562H55.3582H55.3601H55.3621H55.3641H55.3661H55.3681H55.37H55.372H55.374H55.376H55.3779H55.3799H55.3819H55.3839H55.3858H55.3878H55.3898H55.3917H55.3937H55.3957H55.3976H55.3996H55.4016H55.4035H55.4055H55.4075H55.4094H55.4114H55.4133H55.4153H55.4172H55.4192H55.4212H55.4231H55.4251H55.427H55.429H55.4309H55.4328H55.4348H55.4367H55.4387H55.4406H55.4426H55.4445H55.4464H55.4484H55.4503H55.4522H55.4542H55.4561H55.458H55.46H55.4619H55.4638H55.4658H55.4677H55.4696H55.4715H55.4735H55.4754H55.4773H55.4792H55.4811H55.483H55.485H55.4869H55.4888H55.4907H55.4926H55.4945H55.4964H55.4983H55.5002H55.5021H55.504H55.5059H55.5078H55.5097H55.5116H55.5135H55.5154H55.5173H55.5192H55.5211H55.523H55.5249H55.5268H55.5286H55.5305H55.5324H55.5343H55.5362H55.538H55.5399H55.5418H55.5437H55.5455H55.5474H55.5493H55.5511Z" stroke="#E1ECEF" stroke-width="3"/>
</svg>
