<svg width="131" height="131" viewBox="0 0 131 131" fill="none" xmlns="http://www.w3.org/2000/svg">
<circle cx="65.5" cy="65.5" r="64" stroke="#E1ECEF" stroke-width="3"/>
<path d="M80.1768 84.1106C80.3023 85.6752 80.5191 87.2053 80.5076 88.7239C80.4962 90.0929 80.3365 91.4735 80.0513 92.8195C79.8915 93.5673 79.4123 94.2806 78.9787 94.9478C78.625 95.5 78.0431 95.7186 77.37 95.523C76.674 95.316 76.4115 94.7868 76.2974 94.108C76.0464 92.5434 75.9209 90.9328 75.4645 89.4257C74.9511 87.7345 74.1296 86.1354 73.4336 84.5018C73.3765 84.3752 73.2739 84.2602 73.1712 84.1106C72.7832 85.4451 71.2543 99.377 71.4825 100.746C71.551 100.815 71.6194 100.769 71.6879 100.838C71.7678 100.666 71.8134 100.574 71.9161 100.435C73.2625 98.6753 72.9087 97.962 74.2437 96.1903C74.894 95.3275 76.9022 96.4779 77.929 96.8115C78.8076 97.0992 79.6975 97.4098 80.5076 97.8584C81.5916 98.4452 81.7741 99.3425 81.2036 100.435C80.0398 102.702 78.9103 104.98 77.3015 106.981C75.2135 109.593 72.8061 111.825 69.6798 113.136C68.1623 113.769 66.5763 114.057 64.9333 113.723C62.446 113.228 60.8144 111.687 59.8674 109.374C59.0117 107.281 58.6123 105.072 58.2586 102.863C57.4714 97.893 57.5512 98.9859 57.2203 93.9814C57.015 90.9213 56.8324 87.8611 56.6384 84.8009C56.627 84.6743 56.6042 84.5478 56.5586 84.2487C56.3988 84.5133 56.2962 84.6628 56.2163 84.8124C54.7558 87.585 53.7632 90.4956 53.5692 93.6593C53.5008 94.8558 53.1356 95.3965 52.3598 95.5806C51.641 95.7531 50.9792 95.362 50.4087 94.3956C49.5416 92.946 49.2906 91.3354 49.3134 89.7018C49.3362 88.0567 49.5302 86.4115 49.6443 84.7779C49.6557 84.5938 49.6899 84.3982 49.7241 84.1681C48.9939 84.0531 48.2751 83.9726 47.5791 83.823C44.875 83.2708 42.536 81.9248 40.391 80.2336C38.1432 78.4734 36.1579 76.4372 34.3894 74.1938C32.4498 71.7433 30.1222 69.7991 27.4637 68.2C25.6496 67.107 23.7898 66.0946 22.238 64.6221C19.9675 62.4017 19.1802 59.6406 19.3057 56.592C19.34 55.7752 19.6823 54.9468 20.036 54.1875C23.6757 46.3185 28.0684 41.107 33.8075 34.5954C34.7203 33.56 35.8156 32.6627 36.8882 31.7769C38.5654 30.3963 40.4822 30.0167 42.6273 30.3848C45.0575 30.799 47.3053 31.6848 49.553 32.6397C50.7624 33.1459 51.9719 33.6636 53.2041 34.1123C55.7827 35.0671 58.3955 35.3778 61.1453 34.8485C64.0776 34.2963 67.0555 34.4689 69.9993 35.0326C71.4825 35.3202 72.943 35.1822 74.335 34.745C76.3659 34.1123 78.3284 33.2839 80.3365 32.5822C82.299 31.8804 84.2615 31.1556 86.2696 30.5689C89.1562 29.7176 91.6436 30.5574 93.8456 32.5477C96.082 34.5724 97.9988 36.8733 99.7445 39.3123C103.464 44.5123 106.659 47.8486 109.488 53.6008C111.702 58.0991 109.682 63.2876 106.294 65.577C104.776 66.6008 103.224 67.5672 101.673 68.5336C99.3109 70.0062 97.2343 71.8124 95.4772 73.9982C93.2523 76.7593 90.7992 79.3018 87.8555 81.3035C85.6763 82.7876 83.3144 83.777 80.6674 84.0186C80.5305 84.0301 80.405 84.0531 80.268 84.0761C80.2452 84.0646 80.211 84.0876 80.1768 84.1106ZM53.1471 37.1955C50.557 36.1486 47.9898 35.0786 45.3998 34.0893C44.4414 33.7211 43.4259 33.537 42.4333 33.2839C40.8588 32.8928 39.4554 33.2034 38.2459 34.3193C37.4358 35.0671 36.5915 35.7919 35.8499 36.6087C32.484 40.3132 29.7571 44.5008 27.2127 48.8035C25.4328 51.7946 23.7555 52.6574 22.4206 55.8902C22.2837 56.2238 22.1468 56.5805 22.1354 56.9371C22.0669 59.5141 22.8884 61.6999 25.0334 63.2185C26.1858 64.0354 27.3724 64.7831 28.5933 65.5079C31.6853 67.3371 34.4237 69.5805 36.66 72.4336C38.2117 74.4009 39.9574 76.1956 41.9199 77.7717C44.0649 79.4973 46.3811 80.8319 49.1765 81.1425C50.2718 81.269 50.2718 81.269 50.5342 80.1761C50.6255 79.785 50.7168 79.4628 50.3973 79.0717C45.126 72.4221 42.4333 64.8061 42.0796 56.3274C41.897 51.8521 42.6273 49.7123 44.7381 45.7203C45.2515 44.7539 45.1488 43.8795 44.6354 43.0052C44.2474 42.3379 43.6427 41.9238 42.9353 41.6362C42.2051 41.3371 41.897 40.5433 42.1595 39.83C42.4105 39.1512 43.1293 38.7371 43.8025 38.9326C47.3281 39.968 48.8684 44.1672 47.3737 46.8592C47.0428 47.4459 46.769 48.0557 46.518 48.6769C45.0233 52.3698 44.6924 54.0265 45.0347 57.9495C45.5824 64.346 47.6476 70.2132 51.2645 75.4938C51.3785 75.6549 51.5041 75.8159 51.7094 76.092C51.8692 75.5398 52.0517 75.1371 52.1088 74.7115C52.7477 70.6734 53.3296 66.6354 53.4551 62.5513C53.4779 61.723 54.1055 61.1132 54.8699 61.1132C55.6572 61.1132 56.2733 61.746 56.2961 62.6088C56.3076 62.9539 56.3076 63.2991 56.2733 63.6442C55.874 67.2796 55.4518 70.915 55.0639 74.5504C55.0411 74.792 55.1438 75.1141 55.3035 75.2867C56.3874 76.4141 57.517 77.4956 58.5781 78.646C58.8748 78.9681 59.1258 79.4628 59.1486 79.9C59.5251 85.123 59.8446 90.346 60.2097 95.5691C60.552 100.424 60.4607 99.1815 61.3735 103.979C61.6701 105.532 62.0809 107.085 62.6514 108.558C63.3702 110.398 65.0018 111.25 66.93 110.916C67.7401 110.778 68.5616 110.525 69.3033 110.145C71.8933 108.834 73.9356 106.866 75.5672 104.485C76.5485 103.058 77.3814 101.54 78.2599 100.079C77.8263 99.6761 77.6894 99.9638 77.5297 100.171C76.5827 101.425 75.6927 102.713 74.6658 103.898C73.8443 104.842 72.9544 105.774 71.9503 106.498C70.3073 107.66 68.6643 106.809 68.5388 104.784C68.4589 103.461 68.4247 102.138 68.4818 100.815C68.767 94.8558 69.5429 95.0053 69.8852 89.0575C70.0563 85.9974 70.2959 82.9372 70.5469 79.877C70.5812 79.4858 70.7637 79.0487 71.0261 78.7611C71.8134 77.9097 72.6235 77.0469 73.5249 76.3336C74.6316 75.4708 74.7914 74.5159 74.5403 73.1584C73.9128 69.7301 73.445 66.2672 73.388 62.7699C73.3765 61.8035 73.9356 61.1592 74.7685 61.1247C75.59 61.1017 76.2176 61.746 76.2404 62.6893C76.3317 66.7619 77.0163 70.777 77.6666 74.7805C77.7237 75.1487 77.9062 75.5053 78.0774 76.023C78.1915 75.8274 78.2257 75.7699 78.2599 75.7239C78.3968 75.5168 78.5566 75.3212 78.6935 75.1141C82.5956 69.1778 84.6722 62.6548 84.7749 55.5221C84.8319 51.6911 84.1702 50.1725 82.299 46.7902C80.8499 44.1787 82.3446 39.945 85.8816 38.9211C86.7944 38.6565 87.6616 39.4158 87.6159 40.3707C87.5817 41.0955 87.1481 41.4981 86.4978 41.7397C85.0487 42.2689 84.0789 44.2937 84.9803 45.8238C85.6877 47.0318 86.1555 48.4008 86.5662 49.7468C87.8441 53.992 87.9012 56.1433 87.2508 60.492C86.2696 67.038 83.9192 73.0203 79.8915 78.2779C79.2982 79.0487 78.9673 79.7159 79.3895 80.6363C79.4123 80.6823 79.4237 80.7513 79.4351 80.8088C79.4693 81.1195 79.6405 81.2345 79.9372 81.1885C80.7587 81.0389 81.603 80.9699 82.4017 80.7398C84.7635 80.0841 86.7716 78.7495 88.5401 77.1044C90.0348 75.7124 91.5181 74.2858 92.7845 72.6982C95.2604 69.5805 98.2612 67.1416 101.673 65.1513C102.951 64.4035 104.217 63.5982 105.335 62.6318C107.537 60.7451 108.188 57.7424 106.978 55.1309C103.692 48.0327 99.6988 43.5459 94.6786 37.5521C93.5604 36.2176 92.1912 35.0786 90.8791 33.9282C90.0918 33.2264 89.0992 33.0078 88.0381 33.2034C87.5589 33.2954 87.0568 33.3415 86.5776 33.445C84.193 33.9512 82.0251 35.0326 79.7888 35.9415C78.7163 36.3786 77.6438 36.7813 76.5142 37.23C76.6854 37.345 76.8109 37.4255 76.9364 37.5061C77.8149 38.0813 78.7049 38.6335 79.5606 39.2317C80.3935 39.8185 80.5647 40.7388 80.0398 41.4176C79.5036 42.1079 78.6935 42.1194 77.8606 41.5441C77.0048 40.9459 76.1377 40.3477 75.2249 39.853C68.8925 36.3901 58.464 36.4477 52.0631 41.3371C51.7665 41.5671 51.3329 41.6822 50.9678 41.7052C50.3973 41.7397 49.9181 41.3025 49.7355 40.7618C49.5416 40.1406 49.7013 39.5194 50.2604 39.1282C51.196 38.4609 52.1772 37.8397 53.1471 37.1955ZM75.9323 78.2203C75.8296 78.1858 75.7384 78.1398 75.6357 78.1053C75.1907 78.6 74.7685 79.1062 74.3007 79.5664C74.0383 79.831 74.0497 80.015 74.2323 80.3372C75.2477 82.1204 76.229 83.9381 77.2216 85.7327C77.2673 85.8248 77.3357 85.9053 77.3928 85.9859C77.4498 85.9628 77.5183 85.9513 77.5753 85.9283C77.0277 83.3628 76.48 80.7973 75.9323 78.2203ZM54.0598 78.0593C53.2497 80.7743 52.6907 83.3398 52.3826 85.8478C53.4779 83.9841 54.6075 82.0398 55.7257 80.0956C55.7713 80.015 55.7485 79.8195 55.68 79.7504C55.1894 79.2212 54.676 78.692 54.0598 78.0593Z" fill="#E1ECEF"/>
<path d="M50.6373 58.2239C49.0513 58.2354 47.7734 56.9469 47.7734 55.3478C47.7734 53.7717 49.0285 52.5062 50.6031 52.4947C52.189 52.4832 53.4783 53.7832 53.4669 55.3708C53.4555 56.9469 52.189 58.2124 50.6373 58.2239Z" fill="#E1ECEF"/>
<path d="M81.9458 55.3372C81.9572 56.9363 80.6793 58.2248 79.0934 58.2248C77.5302 58.2248 76.2752 56.9593 76.2637 55.3832C76.2523 53.7841 77.5302 52.4956 79.1162 52.4956C80.6907 52.5071 81.9458 53.7611 81.9458 55.3372Z" fill="#E1ECEF"/>
</svg>
