<svg width="131" height="131" viewBox="0 0 131 131" fill="none" xmlns="http://www.w3.org/2000/svg">
<path d="M89.6919 78.9544C86.0684 74.6383 82.6274 73.6056 82.6274 73.6056L76.6317 71.7521C76.6317 71.7521 79.6295 62.0873 79.8902 57.9301C80.1509 53.773 80.3073 47.2856 80.3073 47.2856C80.3073 47.2856 82.4971 46.3059 82.7577 44.6642C83.0184 43.0225 83.0966 43.5256 82.7577 42.0428C82.3928 40.5335 80.3334 40.1628 79.4992 37.5679C78.6911 34.973 76.8924 31.6896 72.539 26.1555C68.1856 20.6214 65.9958 18 65.9958 18C65.9958 18 63.8061 20.6214 59.4527 26.1555C55.0993 31.6896 53.3006 34.973 52.4924 37.5679C51.6843 40.1628 49.5989 40.5335 49.2339 42.0428C48.895 43.5256 48.9732 43.0225 49.2339 44.6642C49.4946 46.3059 51.6843 47.2856 51.6843 47.2856C51.6843 47.2856 51.8147 53.773 52.1014 57.9301C52.3621 62.0873 55.3599 71.7521 55.3599 71.7521L49.3642 73.6056C49.3642 73.6056 45.9232 74.6118 42.2997 78.9544C40.5792 81.0197 38.3634 85.0975 39.1715 90.1549C39.8754 94.4445 43.942 112 43.942 112C43.942 112 46.3403 100.085 47.2006 97.3307C48.3215 93.7296 49.7553 91.7172 51.6843 90.4197C54.5258 88.5397 57.1326 87.6659 59.2963 87.56C61.486 87.4541 60.6518 88.222 61.0689 89.5989C61.486 90.9758 61.5903 90.711 61.5903 92.5116C61.5903 94.3121 61.3557 94.7887 61.3557 94.7887H66.0219H70.636C70.636 94.7887 70.4014 94.3386 70.4014 92.5116C70.4014 90.6845 70.5056 90.9758 70.9227 89.5989C71.3398 88.222 70.5056 87.4541 72.6954 87.56C74.8851 87.6659 77.4919 88.5397 80.3073 90.4197C82.2364 91.7172 83.6701 93.7296 84.7911 97.3307C85.6513 100.085 88.0496 112 88.0496 112C88.0496 112 92.1162 94.4445 92.8201 90.1549C93.6543 85.0975 91.4124 80.9932 89.6919 78.9544Z" stroke="#E1ECEF" stroke-width="3"/>
</svg>
