<svg width="90" height="89" viewBox="0 0 90 89" fill="none" xmlns="http://www.w3.org/2000/svg">
<path d="M46.9206 67.2827C46.9206 67.2827 47.5713 71.1914 48.1833 77.189C48.9071 84.1577 50.7856 88.414 51.2969 87.8182C51.2969 87.8182 51.5857 88.2426 53.0576 88.0404C54.5295 87.8382 54.7146 85.2713 54.7146 85.2713C54.7146 85.2713 53.0508 86.4249 51.8492 80.0504C50.6477 73.6759 49.7423 67.1532 49.7423 67.1532L60.6029 79.3456C60.6029 79.3456 59.5001 75.121 60.3346 73.5005C61.1676 71.8465 62.3171 71.2214 62.3171 71.2214C62.3171 71.2214 65.33 71.5881 68.0609 73.1459C70.7917 74.7037 72.962 75.7822 72.962 75.7822C72.962 75.7822 72.18 71.9469 76.5445 69.4911C80.909 67.0353 88.1029 64.618 88.1029 64.618C88.1029 64.618 80.7904 61.52 78.9083 59.3847C77.0246 57.2157 74.6582 54.7996 74.6582 54.7996C74.6582 54.7996 75.3539 50.1558 79.2481 47.7216C83.1759 45.2859 89.3333 40.0885 89.3333 40.0885C89.3333 40.0885 85.1 38.8016 84.7331 34.4759C84.3662 30.1502 88.4312 20.437 88.4312 20.437C88.4312 20.437 82.5024 24.7487 78.7876 25.2222C75.0727 25.6957 72.7939 24.4538 71.7186 23.7625C70.6434 23.0713 70.165 22.1844 70.165 22.1844C70.165 22.1844 66.7092 28.3014 64.0047 30.9839C63.2965 31.6897 64.8962 30.6064 64.0047 30.9839C59.2522 33.0535 57.3962 31.4893 57.5274 27.7466C57.5939 26.2624 57.3764 28.1239 57.6858 26.7968C58.556 23.0203 61.1077 13.3428 61.1077 13.3428C61.1077 13.3428 58.0592 15.1322 55.2963 13.6096C52.5333 12.0869 50.7329 11.7319 49.4276 8.96416C48.1224 6.19638 45.779 0.614894 45.779 0.614894C45.779 0.614894 44.6127 4.53969 43.09 7.30263C41.5674 10.0656 41.5209 11.9865 39.0234 13.313C36.5259 14.6395 35.4041 15.8692 34.2222 15.7888C33.0403 15.7084 29.841 14.9464 29.841 14.9464C29.841 14.9464 32.5717 19.4329 33.4893 22.5551C34.3717 25.6453 34.5489 25.8391 34.5102 27.928C34.5117 27.9616 34.5086 27.8944 34.5102 27.928C34.4699 29.9833 31.5857 33.8859 27.8535 33.2494C27.8535 33.2494 27.4014 32.9335 27.0867 32.6786C24.296 30.5513 25.8771 31.9936 23.9397 29.3894C22.0024 26.7853 19.6616 23.4592 19.6616 23.4592C19.6616 23.4592 19.2927 24.9573 17.0899 26.1019C14.887 27.2466 15.1166 28.5826 11.2258 28.1553C7.33489 27.7279 0.561795 25.3795 0.561795 25.3795C0.561795 25.3795 4.41457 29.3768 5.5066 33.3663C6.59864 37.3557 8.13067 38.4636 7.35321 41.327C6.57575 44.1904 5.90611 45.7359 4.89097 46.3548C3.87736 47.0073 10.3752 48.4931 13.1107 50.1517C15.8798 51.8087 19.8725 54.4532 19.8725 54.4532L20.6057 55.0254C21.5848 55.8221 21.8832 57.1886 21.3279 58.2913C20.6474 59.6017 19.616 61.3322 18.1996 62.7437C15.4935 65.3927 15.2806 67.3549 13.0577 68.0629C10.8348 68.7709 8.80602 70.0422 8.80602 70.0422C8.80602 70.0422 15.8271 70.4605 18.2939 72.1314C20.7607 73.8023 22.5918 77.7578 22.5918 77.7578L30.4624 72.4817C31.6698 71.652 33.3343 71.9796 34.1304 73.1886C34.4192 73.6129 34.6088 74.0755 34.667 74.6115C34.8924 76.5872 34.1902 80.3561 34.1902 80.3561C34.1902 80.3561 38.3832 77.1003 41.0832 74.3169C43.8198 71.5993 46.9206 67.2827 46.9206 67.2827Z" fill="white"/>
</svg>
